<svg xmlns="http://www.w3.org/2000/svg" width="27.9" height="27.905" viewBox="0 0 27.9 27.905">
  <path id="blog" d="M24.7.239a.817.817,0,0,0-1.156,0l-6.3,6.3H2.954A2.455,2.455,0,0,0,.5,8.992V20.437a2.455,2.455,0,0,0,2.452,2.452h.872v4.2a.818.818,0,0,0,1.4.572l4.664-4.768h9.521a2.455,2.455,0,0,0,2.452-2.452V11.164l6.3-6.3a.818.818,0,0,0,0-1.156Zm-7.515,13.3L14.87,11.222l6.937-6.937L24.119,6.6ZM14,12.664l1.742,1.742L12.756,15.65Zm6.231,7.773a.818.818,0,0,1-.817.817H9.548a.818.818,0,0,0-.584.246l-3.5,3.581V22.072a.818.818,0,0,0-.817-.817H2.953a.818.818,0,0,1-.817-.817V8.992a.818.818,0,0,1,.817-.817H15.6l-2.47,2.47a.835.835,0,0,0-.181.273L10.692,16.35H6.278a.817.817,0,1,0,0,1.634h4.96a.827.827,0,0,0,.321-.066l5.928-2.469a.83.83,0,0,0,.273-.181l2.47-2.47Zm5.045-15L22.963,3.13l1.156-1.156,2.312,2.312Zm0,0" transform="translate(-0.5 0.001)" fill="#dc3623"/>
</svg>
