<?xml version="1.0" encoding="utf-8"?>
<!-- Generator: Adobe Illustrator 16.0.0, SVG Export Plug-In . SVG Version: 6.00 Build 0)  -->
<!DOCTYPE svg PUBLIC "-//W3C//DTD SVG 1.1//EN" "http://www.w3.org/Graphics/SVG/1.1/DTD/svg11.dtd">
<svg version="1.1" id="Layer_1" xmlns="http://www.w3.org/2000/svg" xmlns:xlink="http://www.w3.org/1999/xlink" x="0px" y="0px"
	 width="512px" height="512px" viewBox="0 0 512 512" enable-background="new 0 0 512 512" xml:space="preserve">
<g>
	<g>
		<g>
			<path fill="#FFFFFF" d="M344.841,326.986c3.568,0,5.356-1.786,5.356-5.357l16.063-33.919l-46.413-23.209l-14.283,33.922
				c-1.786,1.785-1.786,5.354,0,7.143l5.357,5.354c8.926,3.572,16.063,7.138,23.206,14.28c1.783,1.783,3.572,1.783,5.352,1.783
				C343.055,328.772,343.055,328.772,344.841,326.986z"/>
			<path fill="#FFFFFF" d="M385.901,305.565c-3.57-1.789-8.926,1.782-10.714,5.354l-19.639,42.848c0,1.782-1.785,3.571,0,5.354
				c5.353,26.778-8.926,55.339-23.206,71.408c-14.284,14.281-39.273,23.206-66.058,23.206c-24.992,0-46.416-8.925-60.698-23.206
				c-1.788-1.782-7.14-7.141-8.926-14.28c-1.787,1.783-3.573,5.354-7.143,5.354H100.26c-5.357,0-8.927-3.571-8.927-8.926V287.707
				c0-5.354,3.57-8.926,8.927-8.926h89.264c5.356,0,8.926,3.572,8.926,8.926v114.262c3.573-7.143,8.926-12.497,16.066-14.286
				c1.785,0,1.785,0,3.571-1.782c1.786-1.786,5.355-3.571,8.926-7.144c1.786-1.783,1.786-3.568,1.786-5.352
				c0-1.786,0-1.786,1.782-3.575c1.786-3.57,1.786-7.137,3.572-12.494v-1.786c0-1.782,0-3.57,0-5.351v-60.703
				c0-5.352,3.571-8.926,8.926-8.926h55.346l7.14-17.853H98.476c-5.356,0-8.926-3.571-8.926-8.926v-71.411
				c0-5.356,3.573-8.927,8.926-8.927H337.7c1.785,0,3.571,0,3.571,1.786l17.853-41.059c1.786-1.786,0-5.356,0-8.926
				c-1.783-1.782-3.572-3.57-7.144-3.57h-3.568H80.624c-24.992,0-44.631,19.639-44.631,44.629v267.794
				c0,24.989,19.639,44.627,44.631,44.627h267.786c24.995,0,44.633-19.644,44.633-44.627V319.847
				C393.042,310.92,389.474,307.348,385.901,305.565z"/>
			<path fill="#FFFFFF" d="M260.938,341.267c-10.715,10.713-14.287,21.421-16.07,30.347c-1.783,7.144-3.569,12.498-8.926,17.855
				c-10.712,10.712-16.066,12.494-16.066,12.494c-3.569,1.789-5.356,3.575-5.356,7.144c0,3.572,0,5.353,1.788,8.927
				c12.498,12.494,28.561,17.852,48.202,17.852c21.423,0,42.847-7.137,53.556-17.852c17.853-17.855,28.564-55.346,8.927-74.983
				C309.133,323.411,280.572,323.411,260.938,341.267z"/>
			<path fill="#FFFFFF" d="M434.104,44.915c-12.497,0-23.206,7.14-28.561,17.852l-78.552,185.67l46.413,23.206l87.479-183.883
				c1.788-3.57,3.571-8.927,3.571-14.284C464.454,57.411,450.17,44.915,434.104,44.915z"/>
		</g>
	</g>
</g>
</svg>
