<svg xmlns="http://www.w3.org/2000/svg" width="15.347" height="15.994" viewBox="0 0 15.347 15.994">
  <g id="discount" transform="translate(-10.359 0.002)">
    <g id="Group_1061" data-name="Group 1061" transform="translate(10.359 -0.002)">
      <g id="Group_1060" data-name="Group 1060" transform="translate(0 0)">
        <path id="Path_7692" data-name="Path 7692" d="M24.966,8.2a.469.469,0,0,1,0-.414l.6-1.22a1.388,1.388,0,0,0-.6-1.844l-1.2-.637a.469.469,0,0,1-.244-.335l-.235-1.338a1.389,1.389,0,0,0-1.568-1.14l-1.345.19a.469.469,0,0,1-.394-.128L19,.393a1.388,1.388,0,0,0-1.939,0l-.976.944a.469.469,0,0,1-.394.128l-1.345-.19a1.388,1.388,0,0,0-1.568,1.14l-.235,1.338a.469.469,0,0,1-.244.335l-1.2.637a1.388,1.388,0,0,0-.6,1.844l.6,1.22a.469.469,0,0,1,0,.414l-.6,1.22a1.388,1.388,0,0,0,.6,1.844l1.2.637a.469.469,0,0,1,.244.335l.235,1.338a1.388,1.388,0,0,0,1.369,1.154,1.427,1.427,0,0,0,.2-.014l1.345-.19a.469.469,0,0,1,.394.128l.976.944A1.388,1.388,0,0,0,19,15.6l.976-.944a.469.469,0,0,1,.394-.128l1.345.19a1.388,1.388,0,0,0,1.568-1.14l.235-1.338a.469.469,0,0,1,.243-.335l1.2-.637a1.388,1.388,0,0,0,.6-1.844Zm-.435,2.249-1.2.637a1.385,1.385,0,0,0-.72.991l-.235,1.338a.47.47,0,0,1-.531.386l-1.345-.19a1.385,1.385,0,0,0-1.165.378l-.976.944a.47.47,0,0,1-.656,0l-.976-.944a1.384,1.384,0,0,0-.966-.392,1.416,1.416,0,0,0-.2.014l-1.345.19a.47.47,0,0,1-.531-.386l-.235-1.338a1.385,1.385,0,0,0-.72-.991l-1.2-.637a.47.47,0,0,1-.2-.624l.6-1.22a1.385,1.385,0,0,0,0-1.224l-.6-1.22a.47.47,0,0,1,.2-.624l1.2-.637a1.385,1.385,0,0,0,.72-.991l.235-1.338a.47.47,0,0,1,.531-.386l1.345.19A1.385,1.385,0,0,0,16.728,2l.976-.944a.47.47,0,0,1,.656,0L19.337,2a1.385,1.385,0,0,0,1.165.378l1.345-.19a.47.47,0,0,1,.531.386l.235,1.338a1.385,1.385,0,0,0,.72.991l1.2.637a.47.47,0,0,1,.2.624l-.6,1.22a1.385,1.385,0,0,0,0,1.224l.6,1.22A.47.47,0,0,1,24.531,10.452Z" transform="translate(-10.359 0.002)" fill="#4e4e4e"/>
      </g>
    </g>
    <g id="Group_1063" data-name="Group 1063" transform="translate(14.527 4.49)">
      <g id="Group_1062" data-name="Group 1062">
        <path id="Path_7693" data-name="Path 7693" d="M150.667,143.927a.461.461,0,0,0-.652,0l-6.088,6.088a.461.461,0,1,0,.652.652l6.088-6.088A.461.461,0,0,0,150.667,143.927Z" transform="translate(-143.791 -143.791)" fill="#4e4e4e"/>
      </g>
    </g>
    <g id="Group_1065" data-name="Group 1065" transform="translate(14.496 3.844)">
      <g id="Group_1064" data-name="Group 1064">
        <path id="Path_7694" data-name="Path 7694" d="M144.493,123.116a1.691,1.691,0,1,0,1.691,1.691A1.693,1.693,0,0,0,144.493,123.116Zm0,2.46a.769.769,0,1,1,.769-.769A.77.77,0,0,1,144.493,125.576Z" transform="translate(-142.802 -123.116)" fill="#4e4e4e"/>
      </g>
    </g>
    <g id="Group_1067" data-name="Group 1067" transform="translate(18.186 8.764)">
      <g id="Group_1066" data-name="Group 1066">
        <path id="Path_7695" data-name="Path 7695" d="M262.613,280.61A1.691,1.691,0,1,0,264.3,282.3,1.693,1.693,0,0,0,262.613,280.61Zm0,2.46a.769.769,0,1,1,.769-.769A.77.77,0,0,1,262.613,283.07Z" transform="translate(-260.922 -280.61)" fill="#4e4e4e"/>
      </g>
    </g>
  </g>
</svg>
