<svg xmlns="http://www.w3.org/2000/svg" width="111.506" height="94.064" viewBox="0 0 111.506 94.064">
  <g id="Group_2314" data-name="Group 2314" transform="translate(-1122.247 -913.99)">
    <g id="Group_2183" data-name="Group 2183" transform="translate(1122.247 913.99)">
      <ellipse id="Ellipse_89" data-name="Ellipse 89" cx="50.959" cy="3.435" rx="50.959" ry="3.435" transform="translate(8.89 87.194)" fill="#d9daeb"/>
      <g id="Group_2182" data-name="Group 2182" transform="translate(0 0)">
        <path id="Path_9913" data-name="Path 9913" d="M476.693,193.793c20.952,4.191,39.311-.561,49.42-8.985,4.164-3.47,8.378-8.8,9.922-14.976,5.615-22.464-10.935-41.063-23.775-34.07-20.966,11.419-24.087,3.3-41.183-14.039-12.916-13.1-53.913,5.241-32.573,43.8A56.51,56.51,0,0,0,476.693,193.793Z" transform="translate(-425.655 -117.52)" fill="#f59322" opacity="0.2"/>
        <g id="Group_2128" data-name="Group 2128" transform="translate(15.877 10.217)">
          <g id="Group_2118" data-name="Group 2118">
            <g id="Group_2117" data-name="Group 2117">
              <g id="Group_2087" data-name="Group 2087" transform="translate(1.499)">
                <g id="Group_2086" data-name="Group 2086">
                  <g id="Group_2085" data-name="Group 2085">
                    <path id="Path_9914" data-name="Path 9914" d="M500.836,145.006v72.243a4.1,4.1,0,0,1-4.1,4.1H460.761a4.1,4.1,0,0,1-4.1-4.1V145.006a4.1,4.1,0,0,1,4.1-4.1h35.975A4.1,4.1,0,0,1,500.836,145.006Z" transform="translate(-456.661 -140.906)" fill="#de4122"/>
                  </g>
                </g>
              </g>
              <g id="Group_2094" data-name="Group 2094" transform="translate(0 12.271)">
                <g id="Group_2089" data-name="Group 2089" transform="translate(45.675)">
                  <g id="Group_2088" data-name="Group 2088">
                    <path id="Path_9915" data-name="Path 9915" d="M557.774,176.765h1.054a.173.173,0,0,0,.173-.173v-7.426a.173.173,0,0,0-.173-.173h-1.054Z" transform="translate(-557.774 -168.993)" fill="#f59322"/>
                  </g>
                </g>
                <g id="Group_2091" data-name="Group 2091" transform="translate(0 0.725)">
                  <g id="Group_2090" data-name="Group 2090">
                    <path id="Path_9916" data-name="Path 9916" d="M454.729,180.2H453.44a.212.212,0,0,1-.211-.211v-9.121a.212.212,0,0,1,.211-.211h1.288Z" transform="translate(-453.229 -170.653)" fill="#f59322"/>
                  </g>
                </g>
                <g id="Group_2093" data-name="Group 2093" transform="translate(0 11.564)">
                  <g id="Group_2092" data-name="Group 2092">
                    <path id="Path_9917" data-name="Path 9917" d="M454.729,205.007H453.44a.212.212,0,0,1-.211-.211v-9.121a.212.212,0,0,1,.211-.211h1.288Z" transform="translate(-453.229 -195.463)" fill="#f59322"/>
                  </g>
                </g>
              </g>
              <g id="Group_2097" data-name="Group 2097" transform="translate(3.546 2.045)">
                <g id="Group_2096" data-name="Group 2096">
                  <g id="Group_2095" data-name="Group 2095">
                    <path id="Path_9918" data-name="Path 9918" d="M501.428,147.393v72.738a1.806,1.806,0,0,1-1.806,1.807H463.151a1.806,1.806,0,0,1-1.806-1.807V147.393a1.8,1.8,0,0,1,1.806-1.807h36.471A1.807,1.807,0,0,1,501.428,147.393Z" transform="translate(-461.345 -145.586)" fill="#d9daeb"/>
                  </g>
                </g>
              </g>
              <path id="Path_9919" data-name="Path 9919" d="M483.444,185.641h-8.179a1.6,1.6,0,0,1-1.6-1.6v-8.179a1.6,1.6,0,0,1,1.6-1.6h8.179a1.6,1.6,0,0,1,1.6,1.6v8.179A1.6,1.6,0,0,1,483.444,185.641Z" transform="translate(-464.737 -159.69)" fill="#acb0ce"/>
              <path id="Path_9920" data-name="Path 9920" d="M483.444,217.645h-8.179a1.6,1.6,0,0,1-1.6-1.6v-8.179a1.6,1.6,0,0,1,1.6-1.6h8.179a1.6,1.6,0,0,1,1.6,1.6v8.179A1.6,1.6,0,0,1,483.444,217.645Z" transform="translate(-464.737 -177.711)" fill="#acb0ce"/>
              <g id="Group_2099" data-name="Group 2099" transform="translate(3.546 2.045)">
                <g id="Group_2098" data-name="Group 2098">
                  <path id="Path_9921" data-name="Path 9921" d="M461.345,147.393v3.387h40.083v-3.387a1.807,1.807,0,0,0-1.806-1.806H463.151a1.8,1.8,0,0,0-1.806,1.806Z" transform="translate(-461.345 -145.587)" fill="#fff"/>
                </g>
              </g>
              <g id="Group_2112" data-name="Group 2112" transform="translate(35.804 4.09)">
                <g id="Group_2103" data-name="Group 2103">
                  <g id="Group_2102" data-name="Group 2102">
                    <g id="Group_2101" data-name="Group 2101">
                      <g id="Group_2100" data-name="Group 2100">
                        <circle id="Ellipse_90" data-name="Ellipse 90" cx="0.681" cy="0.681" r="0.681" fill="#5b6bc8"/>
                      </g>
                    </g>
                  </g>
                </g>
                <g id="Group_2107" data-name="Group 2107" transform="translate(2.373)">
                  <g id="Group_2106" data-name="Group 2106">
                    <g id="Group_2105" data-name="Group 2105">
                      <g id="Group_2104" data-name="Group 2104">
                        <circle id="Ellipse_91" data-name="Ellipse 91" cx="0.681" cy="0.681" r="0.681" fill="#de4122"/>
                      </g>
                    </g>
                  </g>
                </g>
                <g id="Group_2111" data-name="Group 2111" transform="translate(4.737)">
                  <g id="Group_2110" data-name="Group 2110">
                    <g id="Group_2109" data-name="Group 2109">
                      <g id="Group_2108" data-name="Group 2108">
                        <circle id="Ellipse_92" data-name="Ellipse 92" cx="0.681" cy="0.681" r="0.681" fill="#e9a65f"/>
                      </g>
                    </g>
                  </g>
                </g>
              </g>
              <g id="Group_2114" data-name="Group 2114" transform="translate(13.381 1.992)">
                <g id="Group_2113" data-name="Group 2113">
                  <path id="Path_9922" data-name="Path 9922" d="M504.281,145.466l-1,1a5.327,5.327,0,0,1-3.767,1.561h-10.9a5.33,5.33,0,0,1-3.768-1.561l-.99-.99Z" transform="translate(-483.856 -145.466)" fill="#de4122"/>
                </g>
              </g>
              <g id="Group_2116" data-name="Group 2116" transform="translate(16.29 2.583)">
                <g id="Group_2115" data-name="Group 2115">
                  <path id="Path_9923" data-name="Path 9923" d="M490.564,147.507h14.5a.049.049,0,0,0,.049-.048v-.592a.049.049,0,0,0-.049-.048h-14.5a.048.048,0,0,0-.048.048v.592A.049.049,0,0,0,490.564,147.507Z" transform="translate(-490.516 -146.819)" fill="#415999"/>
                </g>
              </g>
            </g>
          </g>
          <g id="Group_2122" data-name="Group 2122" transform="translate(27.146 14.574)">
            <path id="Path_9924" data-name="Path 9924" d="M549.517,185.642H516.794a1.43,1.43,0,0,1-1.43-1.43v-8.518a1.43,1.43,0,0,1,1.43-1.43h32.723a1.429,1.429,0,0,1,1.43,1.43v8.518A1.43,1.43,0,0,1,549.517,185.642Z" transform="translate(-515.364 -174.264)" fill="#fff"/>
            <g id="Group_2119" data-name="Group 2119" transform="translate(13.393 3.399)">
              <path id="Path_9925" data-name="Path 9925" d="M565.736,183.042H546.495a.474.474,0,0,1-.474-.474v-.05a.474.474,0,0,1,.474-.474h19.241a.474.474,0,0,1,.474.474v.05A.474.474,0,0,1,565.736,183.042Z" transform="translate(-546.02 -182.043)" fill="#ebebfb"/>
              <path id="Path_9926" data-name="Path 9926" d="M565.736,188.075H546.495a.474.474,0,0,1-.474-.474v-.051a.474.474,0,0,1,.474-.474h19.241a.474.474,0,0,1,.474.474v.051A.474.474,0,0,1,565.736,188.075Z" transform="translate(-546.02 -184.877)" fill="#ebebfb"/>
              <path id="Path_9927" data-name="Path 9927" d="M565.736,192.65H546.495a.474.474,0,0,1-.474-.474v-.051a.474.474,0,0,1,.474-.474h19.241a.474.474,0,0,1,.474.474v.051A.474.474,0,0,1,565.736,192.65Z" transform="translate(-546.02 -187.453)" fill="#ebebfb"/>
            </g>
            <g id="Group_2120" data-name="Group 2120" transform="translate(2.13 1.4)">
              <path id="Path_9928" data-name="Path 9928" d="M524.346,185.681h0a4.106,4.106,0,0,1-4.106-4.107h0a4.107,4.107,0,0,1,4.106-4.106h0a4.107,4.107,0,0,1,4.107,4.106h0A4.106,4.106,0,0,1,524.346,185.681Z" transform="translate(-520.24 -177.468)" fill="#e9a65f"/>
            </g>
            <g id="Group_2121" data-name="Group 2121" transform="translate(4.466 2.712)">
              <path id="Path_9929" data-name="Path 9929" d="M527.817,185.131l-.005.623-.791-.007,0-.6a3.3,3.3,0,0,1-1.44-.4l.434-.962a2.7,2.7,0,0,0,1.294.37c.376,0,.511-.075.512-.209,0-.494-2.172-.113-2.16-1.578.005-.634.47-1.164,1.391-1.286l.005-.612.792.007-.005.6a2.93,2.93,0,0,1,1.137.335l-.406.957a2.415,2.415,0,0,0-1.092-.3c-.388,0-.512.108-.513.243,0,.472,2.172.1,2.16,1.544C529.131,184.463,528.688,184.987,527.817,185.131Z" transform="translate(-525.586 -180.471)" fill="#fff"/>
            </g>
          </g>
          <g id="Group_2127" data-name="Group 2127" transform="translate(27.146 28.556)">
            <path id="Path_9930" data-name="Path 9930" d="M549.517,217.645H516.794a1.43,1.43,0,0,1-1.43-1.43V207.7a1.43,1.43,0,0,1,1.43-1.43h32.723a1.43,1.43,0,0,1,1.43,1.43v8.518A1.43,1.43,0,0,1,549.517,217.645Z" transform="translate(-515.364 -206.267)" fill="#fff"/>
            <g id="Group_2123" data-name="Group 2123" transform="translate(13.393 3.398)">
              <path id="Path_9931" data-name="Path 9931" d="M565.736,215.044H546.495a.474.474,0,0,1-.474-.474v-.051a.474.474,0,0,1,.474-.474h19.241a.474.474,0,0,1,.474.474v.051A.474.474,0,0,1,565.736,215.044Z" transform="translate(-546.02 -214.044)" fill="#ebebfb"/>
              <path id="Path_9932" data-name="Path 9932" d="M565.736,220.078H546.495a.474.474,0,0,1-.474-.474v-.051a.474.474,0,0,1,.474-.474h19.241a.474.474,0,0,1,.474.474v.051A.474.474,0,0,1,565.736,220.078Z" transform="translate(-546.02 -216.879)" fill="#ebebfb"/>
              <path id="Path_9933" data-name="Path 9933" d="M565.736,224.653H546.495a.474.474,0,0,1-.474-.474v-.051a.474.474,0,0,1,.474-.474h19.241a.474.474,0,0,1,.474.474v.051A.474.474,0,0,1,565.736,224.653Z" transform="translate(-546.02 -219.455)" fill="#ebebfb"/>
            </g>
            <g id="Group_2124" data-name="Group 2124" transform="translate(2.13 1.4)">
              <path id="Path_9934" data-name="Path 9934" d="M524.346,217.684h0a4.106,4.106,0,0,1-4.106-4.106h0a4.107,4.107,0,0,1,4.106-4.107h0a4.107,4.107,0,0,1,4.107,4.107h0A4.106,4.106,0,0,1,524.346,217.684Z" transform="translate(-520.24 -209.471)" fill="#1c9547"/>
            </g>
            <g id="Group_2126" data-name="Group 2126" transform="translate(4.466 2.851)">
              <g id="Group_2125" data-name="Group 2125">
                <path id="Path_9935" data-name="Path 9935" d="M526.669,214.44a.79.79,0,1,1,.79.79A.789.789,0,0,1,526.669,214.44Zm-1.081.178a1.847,1.847,0,0,0,.256.991c.083.141.168.279.248.422l1.352,2.439.886-1.6c.235-.424.491-.837.738-1.254a1.871,1.871,0,1,0-3.48-1Z" transform="translate(-525.587 -212.793)" fill="#fff"/>
              </g>
            </g>
          </g>
        </g>
        <g id="Group_2136" data-name="Group 2136" transform="translate(24.822 44.87)">
          <g id="Group_2133" data-name="Group 2133">
            <g id="Group_2130" data-name="Group 2130" transform="translate(4.411)">
              <g id="Group_2129" data-name="Group 2129">
                <path id="Path_9936" data-name="Path 9936" d="M483.8,220.773l1.262,2.985,1.893,4.48,6.114,14.473.592-.238-5.6-14.68-1.734-4.544-1.156-3.028Z" transform="translate(-483.801 -220.223)" fill="#122052"/>
                <path id="Path_9937" data-name="Path 9937" d="M486.689,227.661l1.893,4.48,1.1-.444-1.734-4.544Z" transform="translate(-485.427 -224.125)" fill="#de4122"/>
              </g>
            </g>
            <g id="Group_2132" data-name="Group 2132" transform="translate(0 2.071)">
              <g id="Group_2131" data-name="Group 2131">
                <path id="Path_9938" data-name="Path 9938" d="M473.7,225.686l1.636,2.8,2.455,4.2,7.931,13.563.557-.312-7.45-13.833-2.306-4.282-1.537-2.853Z" transform="translate(-473.704 -224.963)" fill="#122052"/>
                <path id="Path_9939" data-name="Path 9939" d="M477.448,232.161l2.455,4.2,1.038-.583-2.306-4.282Z" transform="translate(-475.812 -228.641)" fill="#de4122"/>
              </g>
            </g>
          </g>
          <g id="Group_2135" data-name="Group 2135" transform="translate(2.147 17.856)">
            <path id="Path_9940" data-name="Path 9940" d="M523.869,323.523a89.991,89.991,0,0,1-18.7,0,.192.192,0,0,1-.192-.192v-3.615a.192.192,0,0,1,.192-.192h18.7a.192.192,0,0,1,.192.192v3.615A.192.192,0,0,1,523.869,323.523Z" transform="translate(-493.459 -293.996)" fill="#0d722e"/>
            <path id="Path_9941" data-name="Path 9941" d="M500.027,298.557c-8.567,0-13.712-3.034-16.8-6.793a.008.008,0,0,0,0,0c-5.022-6.116-4.6-14.147-4.6-14.147h42.8S522.536,298.557,500.027,298.557Z" transform="translate(-478.619 -270.396)" fill="#1c9547"/>
            <path id="Path_9942" data-name="Path 9942" d="M505.969,298.557c-8.567,0-13.712-3.034-16.8-6.793.306.176,14.1,4.646,22.346.745,9.938-4.7,5.192-14.895,5.192-14.895h10.658S528.478,298.557,505.969,298.557Z" transform="translate(-484.561 -270.396)" fill="#0d722e"/>
            <g id="Group_2134" data-name="Group 2134" transform="translate(1.06)">
              <path id="Path_9943" data-name="Path 9943" d="M521.643,268.311h-40.6s.713-2.087,2.318-1.9a8.6,8.6,0,0,1,2.378-1.866,4.673,4.673,0,0,1,1.66-.169,5.647,5.647,0,0,1,1.074.169s1.291-3.191,3.025-3.2a3.3,3.3,0,0,1,2.563,1.067,3.31,3.31,0,0,1,2.972-1.3c1.9.233,2.021,1.3,2.021,1.3a3.875,3.875,0,0,1,3.566-1.067c1.962.59,1.843,1.422,1.843,1.422a8.04,8.04,0,0,1,3.506.494c1.665.695,1.665,1.28,1.665,1.28s.879-.121,1.852-.155a6.606,6.606,0,0,1,1.952.155c1.189.366,1.189.9,1.189.9a7.108,7.108,0,0,1,2.853-.059c1.486.3,1.545,1.308,1.545,1.308a2.512,2.512,0,0,1,1.848.242A2.036,2.036,0,0,1,521.643,268.311Z" transform="translate(-481.045 -261.093)" fill="#fff"/>
              <path id="Path_9944" data-name="Path 9944" d="M521.643,272.534h-40.6s.713-2.087,2.318-1.9a8.6,8.6,0,0,1,2.378-1.866,4.673,4.673,0,0,1,1.66-.169s-2.076.716-1.482,1.486,2.378,0,2.378,0a1.772,1.772,0,0,0,1.724,1.367c1.426,0,1.783-1.724,1.783-1.724s.357,1.783,1.961,1.724a2.333,2.333,0,0,0,2.021-1.783,3.162,3.162,0,0,0,2.794,1.491,2.219,2.219,0,0,0,2.456-1.69c-.026.192-.052,1.077,1.586,1.448a2.013,2.013,0,0,0,2.437-.892s1.308,1.667,2.794,1.429.951-2.024.951-2.024,2.081,1.274,2.912.607c.468-.376.145-.975-.228-1.425a6.607,6.607,0,0,1,1.952.155c1.189.366,1.189.9,1.189.9a7.108,7.108,0,0,1,2.853-.059c1.486.3,1.545,1.308,1.545,1.308a2.512,2.512,0,0,1,1.848.242A2.04,2.04,0,0,1,521.643,272.534Z" transform="translate(-481.045 -265.316)" fill="#ebebfb"/>
            </g>
          </g>
        </g>
        <g id="Group_2157" data-name="Group 2157" transform="translate(64.453 39.434)">
          <g id="Group_2155" data-name="Group 2155" transform="translate(7.781)">
            <g id="Group_2141" data-name="Group 2141" transform="translate(23.309)">
              <g id="Group_2138" data-name="Group 2138">
                <g id="Group_2137" data-name="Group 2137">
                  <path id="Path_9945" data-name="Path 9945" d="M646.612,208.417l-1.438,2.389-2.157,3.586-6.968,11.582-.475-.275,6.557-11.82,2.029-3.659,1.352-2.438Z" transform="translate(-635.574 -207.782)" fill="#122052"/>
                  <path id="Path_9946" data-name="Path 9946" d="M653.625,213.948l-2.157,3.586-.886-.513,2.029-3.659Z" transform="translate(-644.025 -210.924)" fill="#de4122"/>
                </g>
              </g>
              <g id="Group_2140" data-name="Group 2140" transform="translate(1.346 2.311)">
                <g id="Group_2139" data-name="Group 2139">
                  <path id="Path_9947" data-name="Path 9947" d="M651.83,213.843l-1.734,2.183-2.6,3.277-8.4,10.585-.436-.334,8.028-10.874,2.485-3.366,1.655-2.243Z" transform="translate(-638.654 -213.071)" fill="#122052"/>
                  <path id="Path_9948" data-name="Path 9948" d="M660.443,218.918l-2.6,3.277-.813-.623,2.485-3.366Z" transform="translate(-649.001 -215.963)" fill="#de4122"/>
                </g>
              </g>
            </g>
            <g id="Group_2142" data-name="Group 2142" transform="translate(1.735 12.032)">
              <path id="Path_9949" data-name="Path 9949" d="M591.432,236.043l-.287,1.121a3.9,3.9,0,0,0-.73-.234,3.545,3.545,0,0,0-.652-.082,2.213,2.213,0,0,0-1.03.2l-.072.037a1.728,1.728,0,0,0-.24.157,1.918,1.918,0,0,0-.617.882c-.019.054-.036.107-.05.157a.781.781,0,0,1-.712.565h-.02a.785.785,0,0,1-.809-.952c0-.006,0-.012,0-.017a3.654,3.654,0,0,1,.553-1.281,3.173,3.173,0,0,1,.89-.859,2.527,2.527,0,0,1,.28-.156,2.737,2.737,0,0,1,1.315-.258,4.235,4.235,0,0,1,1.362.306A4.8,4.8,0,0,1,591.432,236.043Z" transform="translate(-586.194 -235.323)" fill="#de4122"/>
              <path id="Path_9950" data-name="Path 9950" d="M588.451,238.889a1.919,1.919,0,0,0-.617.882,3.99,3.99,0,0,0-1.586-.246,3.652,3.652,0,0,1,.553-1.281A2.912,2.912,0,0,1,588.451,238.889Z" transform="translate(-586.224 -236.967)" fill="#de4122"/>
              <path id="Path_9951" data-name="Path 9951" d="M592.014,236.85a2.214,2.214,0,0,0-1.03.2l-.072.037a4.593,4.593,0,0,0-.72-1.5,2.737,2.737,0,0,1,1.315-.258A2.171,2.171,0,0,1,592.014,236.85Z" transform="translate(-588.446 -235.324)" fill="#de4122"/>
              <path id="Path_9952" data-name="Path 9952" d="M596.872,236.442l-.287,1.121a3.906,3.906,0,0,0-.73-.234,3.58,3.58,0,0,0,.2-1.3A4.754,4.754,0,0,1,596.872,236.442Z" transform="translate(-591.634 -235.722)" fill="#de4122"/>
            </g>
            <g id="Group_2143" data-name="Group 2143" transform="translate(12.569 10.355)">
              <path id="Path_9953" data-name="Path 9953" d="M616.667,233.38l-.735.894a3.887,3.887,0,0,0-.562-.521,3.561,3.561,0,0,0-.556-.351,2.217,2.217,0,0,0-1.019-.253l-.08,0a1.8,1.8,0,0,0-.284.04,1.921,1.921,0,0,0-.933.537c-.041.041-.077.081-.112.121a.78.78,0,0,1-.885.21l-.018-.007a.784.784,0,0,1-.329-1.2l.011-.014a3.651,3.651,0,0,1,1.043-.926,3.173,3.173,0,0,1,1.171-.4,2.534,2.534,0,0,1,.32-.023,2.737,2.737,0,0,1,1.3.324,4.215,4.215,0,0,1,1.1.855A4.8,4.8,0,0,1,616.667,233.38Z" transform="translate(-610.992 -231.485)" fill="#de4122"/>
              <path id="Path_9954" data-name="Path 9954" d="M613.655,233.74a1.921,1.921,0,0,0-.933.537,3.987,3.987,0,0,0-1.333-.9,3.651,3.651,0,0,1,1.043-.926A2.913,2.913,0,0,1,613.655,233.74Z" transform="translate(-611.216 -232.032)" fill="#de4122"/>
              <path id="Path_9955" data-name="Path 9955" d="M618.3,233.4a2.217,2.217,0,0,0-1.019-.253l-.08,0a4.57,4.57,0,0,0-.015-1.667,2.737,2.737,0,0,1,1.3.324A2.165,2.165,0,0,1,618.3,233.4Z" transform="translate(-614.482 -231.486)" fill="#de4122"/>
              <path id="Path_9956" data-name="Path 9956" d="M622.311,234.9l-.735.894a3.883,3.883,0,0,0-.562-.521,3.585,3.585,0,0,0,.733-1.09A4.8,4.8,0,0,1,622.311,234.9Z" transform="translate(-616.635 -233.004)" fill="#de4122"/>
            </g>
            <g id="Group_2144" data-name="Group 2144" transform="translate(23.28 12.121)">
              <path id="Path_9957" data-name="Path 9957" d="M640.9,238.425l-.986.607a3.937,3.937,0,0,0-.362-.675,3.543,3.543,0,0,0-.412-.512,2.207,2.207,0,0,0-.881-.571c-.026-.008-.052-.017-.078-.023a1.669,1.669,0,0,0-.281-.054,1.919,1.919,0,0,0-1.057.2c-.051.025-.1.052-.145.078a.782.782,0,0,1-.906-.088l-.014-.013a.784.784,0,0,1,.08-1.247l.015-.01a3.667,3.667,0,0,1,1.287-.536,3.17,3.17,0,0,1,1.238,0,2.622,2.622,0,0,1,.31.082,2.736,2.736,0,0,1,1.125.729,4.242,4.242,0,0,1,.765,1.166A4.734,4.734,0,0,1,640.9,238.425Z" transform="translate(-635.509 -235.525)" fill="#de4122"/>
              <path id="Path_9958" data-name="Path 9958" d="M638.374,237.273a1.92,1.92,0,0,0-1.057.2,3.993,3.993,0,0,0-.97-1.28,3.668,3.668,0,0,1,1.288-.536A2.915,2.915,0,0,1,638.374,237.273Z" transform="translate(-635.981 -235.602)" fill="#de4122"/>
              <path id="Path_9959" data-name="Path 9959" d="M642.588,238.029a2.207,2.207,0,0,0-.881-.571c-.026-.008-.052-.017-.078-.023a4.589,4.589,0,0,0,.528-1.582,2.736,2.736,0,0,1,1.125.729A2.17,2.17,0,0,1,642.588,238.029Z" transform="translate(-638.955 -235.71)" fill="#de4122"/>
              <path id="Path_9960" data-name="Path 9960" d="M646.116,241.053l-.986.607a3.941,3.941,0,0,0-.362-.675,3.588,3.588,0,0,0,1.047-.793A4.707,4.707,0,0,1,646.116,241.053Z" transform="translate(-640.723 -238.154)" fill="#de4122"/>
            </g>
            <g id="Group_2147" data-name="Group 2147" transform="translate(0 11.159)">
              <path id="Path_9961" data-name="Path 9961" d="M612.188,239.9h-29.7a24.747,24.747,0,0,1,14.643-4.537A26.905,26.905,0,0,1,612.188,239.9Z" transform="translate(-582.371 -234.471)" fill="#fff"/>
              <g id="Group_2145" data-name="Group 2145" transform="translate(4.269 1.891)">
                <path id="Path_9962" data-name="Path 9962" d="M599.956,241.671l.874-.5a.241.241,0,0,1,.328.088l.013.022a.241.241,0,0,1-.088.328l-.873.5a.241.241,0,0,1-.329-.088l-.013-.022A.24.24,0,0,1,599.956,241.671Z" transform="translate(-596.41 -239.613)" fill="#ebebfb"/>
                <path id="Path_9963" data-name="Path 9963" d="M622.473,238.672l.874-.5a.241.241,0,0,1,.329.088l.013.022a.24.24,0,0,1-.088.328l-.874.5a.241.241,0,0,1-.329-.088l-.012-.022A.241.241,0,0,1,622.473,238.672Z" transform="translate(-609.09 -237.925)" fill="#ebebfb"/>
                <path id="Path_9964" data-name="Path 9964" d="M615.034,238.929l-.371-.938a.241.241,0,0,1,.136-.312l.024-.01a.242.242,0,0,1,.312.135l.37.939a.24.24,0,0,1-.135.312l-.024.01A.241.241,0,0,1,615.034,238.929Z" transform="translate(-604.75 -237.652)" fill="#ebebfb"/>
                <path id="Path_9965" data-name="Path 9965" d="M593.421,245.078h-1.188l-.069-.024a.253.253,0,0,1,.085-.492.24.24,0,0,1,.083.014l.928.325A.256.256,0,0,1,593.421,245.078Z" transform="translate(-591.995 -241.543)" fill="#ebebfb"/>
                <path id="Path_9966" data-name="Path 9966" d="M595.866,240.773l-.445.906a.241.241,0,0,1-.321.11l-.024-.011a.242.242,0,0,1-.11-.322l.445-.906a.242.242,0,0,1,.322-.11l.023.011A.241.241,0,0,1,595.866,240.773Z" transform="translate(-593.655 -239.208)" fill="#ebebfb"/>
                <path id="Path_9967" data-name="Path 9967" d="M637.422,241.724l-.445.906a.241.241,0,0,1-.322.11l-.023-.011a.242.242,0,0,1-.11-.322l.445-.906a.241.241,0,0,1,.322-.11l.023.011A.242.242,0,0,1,637.422,241.724Z" transform="translate(-617.055 -239.744)" fill="#ebebfb"/>
                <path id="Path_9968" data-name="Path 9968" d="M626.85,242.755l-.8-.616a.241.241,0,0,1-.044-.337l.015-.02a.242.242,0,0,1,.338-.044l.8.617a.241.241,0,0,1,.044.337l-.016.02A.241.241,0,0,1,626.85,242.755Z" transform="translate(-611.12 -239.925)" fill="#ebebfb"/>
                <path id="Path_9969" data-name="Path 9969" d="M619.359,244.543a.253.253,0,0,1-.107.208l-.249.175h-.877a.255.255,0,0,1,.031-.026l.8-.564a.254.254,0,0,1,.353.062A.251.251,0,0,1,619.359,244.543Z" transform="translate(-606.709 -241.39)" fill="#ebebfb"/>
                <path id="Path_9970" data-name="Path 9970" d="M608.845,241.712l.776.645a.241.241,0,0,1,.031.339l-.017.02a.241.241,0,0,1-.338.031l-.775-.645a.24.24,0,0,1-.031-.339l.016-.02A.241.241,0,0,1,608.845,241.712Z" transform="translate(-601.253 -239.907)" fill="#ebebfb"/>
              </g>
              <g id="Group_2146" data-name="Group 2146">
                <path id="Path_9971" data-name="Path 9971" d="M584.611,242.949l-.775-.645a.24.24,0,0,1-.031-.339l.016-.02a.241.241,0,0,1,.339-.031l.776.645a.24.24,0,0,1,.031.339l-.016.02A.242.242,0,0,1,584.611,242.949Z" transform="translate(-583.083 -238.13)" fill="#fff"/>
                <path id="Path_9972" data-name="Path 9972" d="M583.473,244.395h-1.009a.241.241,0,0,1-.241-.24v-.026a.241.241,0,0,1,.241-.24h1.009a.241.241,0,0,1,.241.24v.026A.242.242,0,0,1,583.473,244.395Z" transform="translate(-582.223 -239.273)" fill="#fff"/>
                <path id="Path_9973" data-name="Path 9973" d="M586.992,241.491l.683-.742a.241.241,0,0,1,.339-.014l.019.017a.242.242,0,0,1,.014.34l-.684.742a.241.241,0,0,1-.339.014l-.019-.017A.241.241,0,0,1,586.992,241.491Z" transform="translate(-584.873 -237.462)" fill="#fff"/>
                <path id="Path_9974" data-name="Path 9974" d="M591.474,240.176h-1.009a.242.242,0,0,1-.241-.241v-.026a.242.242,0,0,1,.241-.24h1.009a.241.241,0,0,1,.241.24v.026A.241.241,0,0,1,591.474,240.176Z" transform="translate(-586.728 -236.897)" fill="#fff"/>
                <path id="Path_9975" data-name="Path 9975" d="M593.544,238.9l-.714-.713a.241.241,0,0,1,0-.34l.018-.018a.24.24,0,0,1,.34,0l.714.713a.242.242,0,0,1,0,.34l-.019.018A.242.242,0,0,1,593.544,238.9Z" transform="translate(-588.156 -235.823)" fill="#fff"/>
                <path id="Path_9976" data-name="Path 9976" d="M593.976,238.19l.617-.8a.241.241,0,0,1,.337-.043l.02.016a.242.242,0,0,1,.044.337l-.617.8a.24.24,0,0,1-.337.043l-.021-.016A.241.241,0,0,1,593.976,238.19Z" transform="translate(-588.813 -235.562)" fill="#fff"/>
                <path id="Path_9977" data-name="Path 9977" d="M609.158,234.608l.264-.974a.241.241,0,0,0-.169-.295l-.025-.007a.241.241,0,0,0-.3.169l-.264.974a.241.241,0,0,0,.169.3l.025.007A.241.241,0,0,0,609.158,234.608Z" transform="translate(-597.11 -233.325)" fill="#fff"/>
                <path id="Path_9978" data-name="Path 9978" d="M610.215,235.127l.827-.579a.242.242,0,0,0,.059-.335l-.015-.021a.241.241,0,0,0-.335-.059l-.826.579a.241.241,0,0,0-.059.335l.014.021A.241.241,0,0,0,610.215,235.127Z" transform="translate(-597.764 -233.755)" fill="#fff"/>
                <path id="Path_9979" data-name="Path 9979" d="M606,235.274l-.986-.215a.241.241,0,0,0-.286.184l-.005.025a.24.24,0,0,0,.183.286l.986.215a.24.24,0,0,0,.286-.184l.006-.025A.242.242,0,0,0,606,235.274Z" transform="translate(-594.891 -234.298)" fill="#fff"/>
                <path id="Path_9980" data-name="Path 9980" d="M601.24,236.264l.826-.579a.241.241,0,0,0,.059-.335l-.014-.021a.241.241,0,0,0-.335-.059l-.826.579a.242.242,0,0,0-.059.335l.015.021A.241.241,0,0,0,601.24,236.264Z" transform="translate(-592.711 -234.396)" fill="#fff"/>
                <path id="Path_9981" data-name="Path 9981" d="M599.635,236.42l.175-.994a.241.241,0,0,0-.195-.278l-.025,0a.241.241,0,0,0-.279.2l-.175.993a.24.24,0,0,0,.195.278l.025,0A.241.241,0,0,0,599.635,236.42Z" transform="translate(-591.745 -234.347)" fill="#fff"/>
                <path id="Path_9982" data-name="Path 9982" d="M596.988,237.8l.5-.874a.24.24,0,0,0-.088-.328l-.023-.013a.24.24,0,0,0-.328.088l-.5.874a.241.241,0,0,0,.088.328l.023.013A.241.241,0,0,0,596.988,237.8Z" transform="translate(-590.272 -235.142)" fill="#fff"/>
                <path id="Path_9983" data-name="Path 9983" d="M646.042,242.949l.776-.645a.241.241,0,0,0,.031-.339l-.017-.02a.24.24,0,0,0-.338-.031l-.776.645a.242.242,0,0,0-.031.339l.017.02A.241.241,0,0,0,646.042,242.949Z" transform="translate(-617.929 -238.13)" fill="#fff"/>
                <path id="Path_9984" data-name="Path 9984" d="M646.9,244.395h1.009a.241.241,0,0,0,.241-.241v-.026a.241.241,0,0,0-.241-.24H646.9a.241.241,0,0,0-.24.24v.026A.242.242,0,0,0,646.9,244.395Z" transform="translate(-618.508 -239.273)" fill="#fff"/>
                <path id="Path_9985" data-name="Path 9985" d="M643.777,241.491l-.683-.742a.241.241,0,0,0-.339-.014l-.019.017a.24.24,0,0,0-.014.34l.683.742a.241.241,0,0,0,.339.014l.019-.017A.241.241,0,0,0,643.777,241.491Z" transform="translate(-616.254 -237.462)" fill="#fff"/>
                <path id="Path_9986" data-name="Path 9986" d="M638.9,240.176h1.009a.241.241,0,0,0,.241-.241v-.026a.241.241,0,0,0-.241-.24H638.9a.241.241,0,0,0-.241.24v.026A.241.241,0,0,0,638.9,240.176Z" transform="translate(-614.002 -236.897)" fill="#fff"/>
                <path id="Path_9987" data-name="Path 9987" d="M637.188,238.9l.714-.713a.24.24,0,0,0,0-.34l-.018-.018a.241.241,0,0,0-.34,0l-.713.713a.241.241,0,0,0,0,.34l.018.018A.242.242,0,0,0,637.188,238.9Z" transform="translate(-612.933 -235.823)" fill="#fff"/>
                <path id="Path_9988" data-name="Path 9988" d="M636.878,238.19l-.616-.8a.242.242,0,0,0-.338-.043l-.02.016a.241.241,0,0,0-.043.337l.616.8a.24.24,0,0,0,.337.043l.021-.016A.24.24,0,0,0,636.878,238.19Z" transform="translate(-612.399 -235.562)" fill="#fff"/>
                <path id="Path_9989" data-name="Path 9989" d="M622.143,234.608l-.264-.974a.241.241,0,0,1,.169-.295l.025-.007a.24.24,0,0,1,.294.169l.265.973a.242.242,0,0,1-.169.295l-.025.007A.242.242,0,0,1,622.143,234.608Z" transform="translate(-604.549 -233.325)" fill="#fff"/>
                <path id="Path_9990" data-name="Path 9990" d="M620.536,235.241l-.826-.579a.241.241,0,0,1-.059-.335l.014-.021a.242.242,0,0,1,.336-.059l.826.579a.241.241,0,0,1,.059.335l-.014.021A.243.243,0,0,1,620.536,235.241Z" transform="translate(-603.275 -233.82)" fill="#fff"/>
                <path id="Path_9991" data-name="Path 9991" d="M624.394,235.274l.986-.215a.241.241,0,0,1,.286.184l.006.025a.241.241,0,0,1-.183.286l-.986.216a.24.24,0,0,1-.286-.184l-.006-.025A.241.241,0,0,1,624.394,235.274Z" transform="translate(-605.863 -234.298)" fill="#fff"/>
                <path id="Path_9992" data-name="Path 9992" d="M613.6,234.712l.924-.406a.241.241,0,0,1,.317.123l.01.024a.241.241,0,0,1-.124.317l-.923.406a.242.242,0,0,1-.318-.123l-.01-.023A.24.24,0,0,1,613.6,234.712Z" transform="translate(-599.812 -233.866)" fill="#fff"/>
                <path id="Path_9993" data-name="Path 9993" d="M617.268,234.93l.215-.986a.242.242,0,0,1,.287-.183l.025.006a.24.24,0,0,1,.183.286l-.215.986a.24.24,0,0,1-.286.183l-.026-.005A.242.242,0,0,1,617.268,234.93Z" transform="translate(-601.954 -233.567)" fill="#fff"/>
                <path id="Path_9994" data-name="Path 9994" d="M629.349,236.264l-.826-.579a.241.241,0,0,1-.059-.335l.014-.021a.242.242,0,0,1,.336-.059l.827.579a.242.242,0,0,1,.059.335l-.014.021A.242.242,0,0,1,629.349,236.264Z" transform="translate(-608.238 -234.396)" fill="#fff"/>
                <path id="Path_9995" data-name="Path 9995" d="M631.781,236.42l-.174-.994a.241.241,0,0,1,.2-.278l.025,0a.242.242,0,0,1,.279.2l.175.993a.241.241,0,0,1-.2.278l-.025,0A.242.242,0,0,1,631.781,236.42Z" transform="translate(-610.029 -234.347)" fill="#fff"/>
                <path id="Path_9996" data-name="Path 9996" d="M634.009,237.8l-.5-.874a.241.241,0,0,1,.088-.328l.023-.013a.241.241,0,0,1,.329.088l.5.874a.24.24,0,0,1-.087.328l-.022.013A.241.241,0,0,1,634.009,237.8Z" transform="translate(-611.082 -235.142)" fill="#fff"/>
              </g>
            </g>
            <g id="Group_2148" data-name="Group 2148" transform="translate(9.317 14.834)">
              <path id="Path_9997" data-name="Path 9997" d="M604.606,241.735c0,.022,0,.043,0,.065-.07,1.19-.872,1.365-1.027,1.388h0l-.025,0A1.389,1.389,0,0,1,604.606,241.735Z" transform="translate(-603.548 -241.735)" fill="#122052"/>
            </g>
            <g id="Group_2149" data-name="Group 2149" transform="translate(11.936 12.735)">
              <path id="Path_9998" data-name="Path 9998" d="M609.582,236.932l.056.033a1.294,1.294,0,0,1,.744,1.557h0a.208.208,0,0,1-.009.023A1.387,1.387,0,0,1,609.582,236.932Z" transform="translate(-609.543 -236.932)" fill="#122052"/>
            </g>
            <g id="Group_2150" data-name="Group 2150" transform="translate(22.165 15.09)">
              <path id="Path_9999" data-name="Path 9999" d="M634.414,242.323c-.007.021-.015.041-.024.061-.437,1.109-1.254,1.025-1.408,1h0l-.025,0A1.389,1.389,0,0,1,634.414,242.323Z" transform="translate(-632.957 -242.32)" fill="#122052"/>
            </g>
            <g id="Group_2151" data-name="Group 2151" transform="translate(15.888 13.713)">
              <path id="Path_10000" data-name="Path 10000" d="M619.3,239.169c.005.021.01.042.014.063a1.3,1.3,0,0,1-.618,1.612h0l-.023.01A1.389,1.389,0,0,1,619.3,239.169Z" transform="translate(-618.589 -239.169)" fill="#122052"/>
            </g>
            <g id="Group_2152" data-name="Group 2152" transform="translate(2.195 15.663)">
              <path id="Path_10001" data-name="Path 10001" d="M588.322,243.633c0,.022,0,.044-.007.065a1.753,1.753,0,0,1-.312.858h-.755A1.416,1.416,0,0,1,588.322,243.633Z" transform="translate(-587.248 -243.633)" fill="#122052"/>
            </g>
            <g id="Group_2153" data-name="Group 2153" transform="translate(20.352 12.855)">
              <path id="Path_10002" data-name="Path 10002" d="M628.821,237.205l.058.028c1.07.524.922,1.331.883,1.483h0a.155.155,0,0,1-.007.024A1.388,1.388,0,0,1,628.821,237.205Z" transform="translate(-628.807 -237.205)" fill="#122052"/>
            </g>
            <g id="Group_2154" data-name="Group 2154" transform="translate(26.832 15.816)">
              <path id="Path_10003" data-name="Path 10003" d="M644.514,244.752h-.768a1.538,1.538,0,0,1-.092-.768l.058.028A1.618,1.618,0,0,1,644.514,244.752Z" transform="translate(-643.64 -243.984)" fill="#122052"/>
            </g>
          </g>
          <g id="Group_2156" data-name="Group 2156" transform="translate(0 16.59)">
            <path id="Path_10004" data-name="Path 10004" d="M611.7,245.756l-2.043,10.861-.048.263-.128.681-.05.262-.028.152-.168.892-2.13,11.324-.114.6-.063.34-.1.551-.533,2.835-.177.944-1.15,6.114a116.53,116.53,0,0,1-20.97,0l-1.15-6.114-.177-.944-.534-2.835-.1-.551-.064-.34-.114-.6-2.129-11.324-.168-.892-.028-.152-.048-.262-.128-.681-.05-.263-2.043-10.861Z" transform="translate(-571.648 -245.755)" fill="#de4122"/>
            <circle id="Ellipse_93" data-name="Ellipse 93" cx="5.601" cy="5.601" r="5.601" transform="translate(17.482 14.429)" fill="#0d722e"/>
            <path id="Path_10005" data-name="Path 10005" d="M611.045,290.212a4.812,4.812,0,1,1,4.812-4.812A4.818,4.818,0,0,1,611.045,290.212Z" transform="translate(-587.963 -265.369)" fill="#1c9547"/>
            <path id="Path_10006" data-name="Path 10006" d="M612.31,271.215l-.128.681-.05.262h-29.9l-.049-.262-.128-.681Z" transform="translate(-574.346 -260.091)" fill="#1c9547"/>
            <path id="Path_10007" data-name="Path 10007" d="M613.266,311.589l-.177.944H589.82l-.177-.944Z" transform="translate(-578.621 -282.826)" fill="#1c9547"/>
            <path id="Path_10008" data-name="Path 10008" d="M611.7,245.754l-5.655,9.716h-22.68l-6.109-9.716Z" transform="translate(-571.648 -245.754)" fill="#de4122"/>
            <path id="Path_10009" data-name="Path 10009" d="M566.528,254.909l4.145-5.715-.647-3.439-5.613,9.155Z" transform="translate(-564.414 -245.754)" fill="#de4122"/>
            <path id="Path_10010" data-name="Path 10010" d="M660.873,254.909l-5.614-9.155-.646,3.439,4.145,5.715Z" transform="translate(-615.206 -245.754)" fill="#de4122"/>
          </g>
        </g>
        <g id="Group_2169" data-name="Group 2169" transform="translate(0 55.563)">
          <g id="Group_2158" data-name="Group 2158" transform="translate(7.614)">
            <path id="Path_10011" data-name="Path 10011" d="M434.316,246.879a2.181,2.181,0,1,1,2.181,2.181A2.184,2.184,0,0,1,434.316,246.879Zm.608,0a1.574,1.574,0,1,0,1.574-1.574A1.576,1.576,0,0,0,434.924,246.879Z" transform="translate(-434.316 -244.698)" fill="#5b6bc8"/>
          </g>
          <g id="Group_2163" data-name="Group 2163" transform="translate(0 2.181)">
            <g id="Group_2159" data-name="Group 2159" transform="translate(2.258)">
              <path id="Path_10012" data-name="Path 10012" d="M422.337,251.954a.281.281,0,0,0,.281-.28v-1.7a.281.281,0,0,0-.562,0v1.7A.281.281,0,0,0,422.337,251.954Z" transform="translate(-422.056 -249.691)" fill="#de4122"/>
            </g>
            <g id="Group_2160" data-name="Group 2160" transform="translate(2.815 2.258)">
              <path id="Path_10013" data-name="Path 10013" d="M423.612,255.421h1.7a.281.281,0,1,0,0-.562h-1.7a.281.281,0,1,0,0,.562Z" transform="translate(-423.331 -254.859)" fill="#de4122"/>
            </g>
            <g id="Group_2161" data-name="Group 2161" transform="translate(0 2.258)">
              <path id="Path_10014" data-name="Path 10014" d="M417.169,255.421h1.7a.281.281,0,0,0,0-.562h-1.7a.281.281,0,0,0,0,.562Z" transform="translate(-416.888 -254.859)" fill="#de4122"/>
            </g>
            <g id="Group_2162" data-name="Group 2162" transform="translate(2.258 2.698)">
              <path id="Path_10015" data-name="Path 10015" d="M422.337,258.129a.281.281,0,0,0,.281-.281v-1.7a.281.281,0,0,0-.562,0v1.7A.281.281,0,0,0,422.337,258.129Z" transform="translate(-422.056 -255.866)" fill="#de4122"/>
            </g>
          </g>
          <g id="Group_2168" data-name="Group 2168" transform="translate(7.256 7.364)">
            <g id="Group_2164" data-name="Group 2164" transform="translate(2.258)">
              <path id="Path_10016" data-name="Path 10016" d="M438.946,263.816a.281.281,0,0,0,.28-.281v-1.7a.281.281,0,1,0-.562,0v1.7A.282.282,0,0,0,438.946,263.816Z" transform="translate(-438.665 -261.553)" fill="#e9a65f"/>
            </g>
            <g id="Group_2165" data-name="Group 2165" transform="translate(2.815 2.258)">
              <path id="Path_10017" data-name="Path 10017" d="M440.221,267.284h1.7a.281.281,0,1,0,0-.562h-1.7a.281.281,0,0,0,0,.562Z" transform="translate(-439.94 -266.722)" fill="#e9a65f"/>
            </g>
            <g id="Group_2166" data-name="Group 2166" transform="translate(0 2.258)">
              <path id="Path_10018" data-name="Path 10018" d="M433.777,267.284h1.7a.281.281,0,0,0,0-.562h-1.7a.281.281,0,0,0,0,.562Z" transform="translate(-433.496 -266.722)" fill="#e9a65f"/>
            </g>
            <g id="Group_2167" data-name="Group 2167" transform="translate(2.258 2.699)">
              <path id="Path_10019" data-name="Path 10019" d="M438.946,269.993a.281.281,0,0,0,.28-.281v-1.7a.281.281,0,0,0-.562,0v1.7A.281.281,0,0,0,438.946,269.993Z" transform="translate(-438.665 -267.73)" fill="#e9a65f"/>
            </g>
          </g>
        </g>
        <g id="Group_2181" data-name="Group 2181" transform="translate(83.861 28.241)">
          <g id="Group_2170" data-name="Group 2170" transform="translate(0.359)">
            <path id="Path_10020" data-name="Path 10020" d="M611.841,186.524a2.181,2.181,0,1,1,2.181-2.181A2.184,2.184,0,0,1,611.841,186.524Zm0-3.755a1.574,1.574,0,1,0,1.574,1.574A1.576,1.576,0,0,0,611.841,182.769Z" transform="translate(-609.66 -182.161)" fill="#e9a65f"/>
          </g>
          <g id="Group_2175" data-name="Group 2175" transform="translate(7.257 2.181)">
            <g id="Group_2171" data-name="Group 2171" transform="translate(2.258)">
              <path id="Path_10021" data-name="Path 10021" d="M630.9,189.417a.281.281,0,0,1-.281-.28v-1.7a.281.281,0,0,1,.562,0v1.7A.281.281,0,0,1,630.9,189.417Z" transform="translate(-630.617 -187.154)" fill="#de4122"/>
            </g>
            <g id="Group_2172" data-name="Group 2172" transform="translate(0 2.258)">
              <path id="Path_10022" data-name="Path 10022" d="M627.432,192.885h-1.7a.281.281,0,1,1,0-.562h1.7a.281.281,0,0,1,0,.562Z" transform="translate(-625.449 -192.323)" fill="#de4122"/>
            </g>
            <g id="Group_2173" data-name="Group 2173" transform="translate(2.815 2.258)">
              <path id="Path_10023" data-name="Path 10023" d="M633.875,192.885h-1.7a.281.281,0,1,1,0-.562h1.7a.281.281,0,0,1,0,.562Z" transform="translate(-631.892 -192.323)" fill="#de4122"/>
            </g>
            <g id="Group_2174" data-name="Group 2174" transform="translate(2.258 2.698)">
              <path id="Path_10024" data-name="Path 10024" d="M630.9,195.593a.281.281,0,0,1-.281-.281v-1.7a.281.281,0,0,1,.562,0v1.7A.281.281,0,0,1,630.9,195.593Z" transform="translate(-630.617 -193.33)" fill="#de4122"/>
            </g>
          </g>
          <g id="Group_2180" data-name="Group 2180" transform="translate(0 7.365)">
            <g id="Group_2176" data-name="Group 2176" transform="translate(2.259)">
              <path id="Path_10025" data-name="Path 10025" d="M614.29,201.28a.281.281,0,0,1-.281-.281v-1.7a.281.281,0,0,1,.562,0V201A.282.282,0,0,1,614.29,201.28Z" transform="translate(-614.009 -199.018)" fill="#5b6bc8"/>
            </g>
            <g id="Group_2177" data-name="Group 2177" transform="translate(0 2.258)">
              <path id="Path_10026" data-name="Path 10026" d="M610.822,204.747h-1.7a.281.281,0,1,1,0-.561h1.7a.281.281,0,1,1,0,.561Z" transform="translate(-608.839 -204.186)" fill="#5b6bc8"/>
            </g>
            <g id="Group_2178" data-name="Group 2178" transform="translate(2.816 2.258)">
              <path id="Path_10027" data-name="Path 10027" d="M617.267,204.747h-1.7a.281.281,0,1,1,0-.561h1.7a.281.281,0,0,1,0,.561Z" transform="translate(-615.284 -204.186)" fill="#5b6bc8"/>
            </g>
            <g id="Group_2179" data-name="Group 2179" transform="translate(2.259 2.698)">
              <path id="Path_10028" data-name="Path 10028" d="M614.29,207.456a.281.281,0,0,1-.281-.281v-1.7a.281.281,0,0,1,.562,0v1.7A.282.282,0,0,1,614.29,207.456Z" transform="translate(-614.009 -205.193)" fill="#5b6bc8"/>
            </g>
          </g>
        </g>
      </g>
    </g>
  </g>
</svg>
