<svg xmlns="http://www.w3.org/2000/svg" width="21.757" height="23.431" viewBox="0 0 21.757 23.431">
  <g id="Icon_ionic-ios-gift" data-name="Icon ionic-ios-gift" transform="translate(-3.375 -2.25)">
    <path id="Path_9883" data-name="Path 9883" d="M23.459,7.689H19.05a3.073,3.073,0,0,0,1.062-2.3,3.225,3.225,0,0,0-3.3-3.138,2.918,2.918,0,0,0-2.558,1.433A2.918,2.918,0,0,0,11.7,2.25,3.225,3.225,0,0,0,8.4,5.388a3.055,3.055,0,0,0,1.062,2.3H5.049A1.672,1.672,0,0,0,3.375,9.363v1.046a.21.21,0,0,0,.209.209H24.923a.21.21,0,0,0,.209-.209V9.363A1.672,1.672,0,0,0,23.459,7.689ZM16.811,3.714a1.719,1.719,0,0,1,1.763,1.674,1.719,1.719,0,0,1-1.763,1.674H15.049C15.049,4.551,15.838,3.714,16.811,3.714Zm-5.115,0c.973,0,1.763.837,1.763,3.347H11.7A1.719,1.719,0,0,1,9.934,5.388,1.719,1.719,0,0,1,11.7,3.714Z"/>
    <path id="Path_9884" data-name="Path 9884" d="M4.5,15.747V27.357a1.679,1.679,0,0,0,1.674,1.674H13.81v-13.7H4.918A.42.42,0,0,0,4.5,15.747Z" transform="translate(-0.288 -3.35)"/>
    <path id="Path_9885" data-name="Path 9885" d="M27.876,15.328H18.984v13.7H26.62a1.679,1.679,0,0,0,1.674-1.674V15.747A.42.42,0,0,0,27.876,15.328Z" transform="translate(-3.998 -3.35)"/>
  </g>
</svg>
