<svg xmlns="http://www.w3.org/2000/svg" width="60" height="60" viewBox="0 0 60 60">
  <g id="Group_1998" data-name="Group 1998" transform="translate(-33 -572)">
    <circle id="Ellipse_35" data-name="Ellipse 35" cx="30" cy="30" r="30" transform="translate(33 572)" fill="#ffd4a1"/>
    <g id="Icon_feather-briefcase" data-name="Icon feather-briefcase" transform="translate(47 585.8)">
      <path id="Path_7696" data-name="Path 7696" d="M5.6,10.5H26.4A2.6,2.6,0,0,1,29,13.1v13a2.6,2.6,0,0,1-2.6,2.6H5.6A2.6,2.6,0,0,1,3,26.1v-13a2.6,2.6,0,0,1,2.6-2.6Z" transform="translate(0 -0.8)" fill="none" stroke="#a26f32" stroke-linecap="round" stroke-linejoin="round" stroke-width="1"/>
      <path id="Path_7697" data-name="Path 7697" d="M22.4,27.9V7.1a2.6,2.6,0,0,0-2.6-2.6H14.6A2.6,2.6,0,0,0,12,7.1V27.9" transform="translate(-1.2)" fill="none" stroke="#a26f32" stroke-linecap="round" stroke-linejoin="round" stroke-width="1"/>
    </g>
  </g>
</svg>
