<svg xmlns="http://www.w3.org/2000/svg" width="113" height="113" viewBox="0 0 113 113">
  <g id="Group_2015" data-name="Group 2015" transform="translate(-131 -87)">
    <circle id="_1kfmtlu6" data-name="1kfmtlu6" cx="56.5" cy="56.5" r="56.5" transform="translate(131 87)" fill="#e04722"/>
    <g id="Vector_Smart_Object" data-name="Vector Smart Object" transform="translate(160.815 119.871)">
      <path id="Color_Overlay" data-name="Color Overlay" d="M.98,53.878A1.58,1.58,0,0,1,0,52.417V18.668a1.584,1.584,0,0,1,1.587-1.582H23.823a1.585,1.585,0,0,1,1.589,1.582V46.089a1.586,1.586,0,0,1-1.589,1.583H8.6L2.711,53.535a1.587,1.587,0,0,1-1.731.343ZM10.95,24.605c0,.012-.011.024-.015.036L5.369,39.2a1.588,1.588,0,0,0,2.969,1.125l1-2.606h6.751l.986,2.6A1.587,1.587,0,0,0,20.043,39.2L14.529,24.644,14.51,24.6a1.916,1.916,0,0,0-1.778-1.186h0A1.914,1.914,0,0,0,10.95,24.605ZM51.289,36.45,45.4,30.586H30.177A1.587,1.587,0,0,1,28.588,29V1.582A1.586,1.586,0,0,1,30.177,0H52.413A1.584,1.584,0,0,1,54,1.582v33.75a1.588,1.588,0,0,1-2.711,1.118ZM47.647,24.257a1.582,1.582,0,1,0,0-3.163,8.98,8.98,0,0,1-3.709-.8,12.078,12.078,0,0,0,3.077-6.582h1.162a1.583,1.583,0,1,0,0-3.165H42.883V7.909a1.588,1.588,0,0,0-3.176,0v2.637H34.412a1.583,1.583,0,1,0,0,3.165h1.162a12.078,12.078,0,0,0,3.077,6.582,8.987,8.987,0,0,1-3.71.8,1.582,1.582,0,1,0,0,3.163,12.127,12.127,0,0,0,6.353-1.786A12.135,12.135,0,0,0,47.647,24.257Zm-37.1,10.3,2.181-5.7,2.161,5.7ZM38.791,13.711H43.8a8.933,8.933,0,0,1-2.5,4.761A8.942,8.942,0,0,1,38.791,13.711Z" transform="translate(0.185 -0.871)" fill="#fff"/>
    </g>
  </g>
</svg>
