<svg xmlns="http://www.w3.org/2000/svg" width="113" height="113" viewBox="0 0 113 113">
  <g id="Group_2013" data-name="Group 2013" transform="translate(-132 -87)">
    <circle id="_1kfmtlu6" data-name="1kfmtlu6" cx="56.5" cy="56.5" r="56.5" transform="translate(132 87)" fill="#e04722"/>
    <g id="Icon_feather-settings" data-name="Icon feather-settings" transform="translate(160.5 115.33)">
      <path id="Path_7938" data-name="Path 7938" d="M28.047,20.774A7.274,7.274,0,1,1,20.774,13.5,7.274,7.274,0,0,1,28.047,20.774Z" transform="translate(7.397 7.397)" fill="none" stroke="#fff" stroke-linecap="round" stroke-linejoin="round" stroke-width="2"/>
      <path id="Path_7939" data-name="Path 7939" d="M46.112,35.444a4,4,0,0,0,.8,4.413l.145.145A4.852,4.852,0,1,1,40.2,46.864l-.145-.145a4.033,4.033,0,0,0-6.837,2.861v.412a4.849,4.849,0,0,1-9.7,0v-.218A4,4,0,0,0,20.9,46.112a4,4,0,0,0-4.413.8l-.145.145A4.852,4.852,0,1,1,9.477,40.2l.145-.145a4.033,4.033,0,0,0-2.861-6.837H6.349a4.849,4.849,0,0,1,0-9.7h.218A4,4,0,0,0,10.228,20.9a4,4,0,0,0-.8-4.413l-.145-.145a4.852,4.852,0,1,1,6.862-6.862l.145.145a4,4,0,0,0,4.413.8H20.9a4,4,0,0,0,2.425-3.661V6.349a4.849,4.849,0,1,1,9.7,0v.218a4.033,4.033,0,0,0,6.837,2.861L40,9.283a4.852,4.852,0,1,1,6.862,6.862l-.145.145a4,4,0,0,0-.8,4.413V20.9a4,4,0,0,0,3.661,2.425h.412a4.849,4.849,0,0,1,0,9.7h-.218a4,4,0,0,0-3.661,2.425Z" fill="none" stroke="#fff" stroke-linecap="round" stroke-linejoin="round" stroke-width="2"/>
    </g>
  </g>
</svg>
