<svg xmlns="http://www.w3.org/2000/svg" width="26.375" height="26.375" viewBox="0 0 26.375 26.375">
  <path id="Icon_ionic-ios-help-circle" data-name="Icon ionic-ios-help-circle" d="M16.562,3.375A13.187,13.187,0,1,0,29.75,16.562,13.185,13.185,0,0,0,16.562,3.375ZM16.29,22.649a1.307,1.307,0,1,1,1.363-1.306A1.324,1.324,0,0,1,16.29,22.649Zm2.549-6.144c-1.1.64-1.477,1.11-1.477,1.921v.5h-2.2l-.019-.545a2.639,2.639,0,0,1,1.5-2.79c1.071-.64,1.522-1.046,1.522-1.832A1.539,1.539,0,0,0,16.455,12.4a1.6,1.6,0,0,0-1.7,1.56H12.5c.044-2.042,1.553-3.487,4.1-3.487,2.378,0,4.013,1.319,4.013,3.214A3.1,3.1,0,0,1,18.839,16.505Z" transform="translate(-3.375 -3.375)"/>
</svg>
