<svg xmlns="http://www.w3.org/2000/svg" width="40.276" height="40.276" viewBox="0 0 40.276 40.276">
  <g id="Icon_feather-image" data-name="Icon feather-image" transform="translate(-3 -3)">
    <path id="Path_9467" data-name="Path 9467" d="M8.573,4.5H37.082a4.073,4.073,0,0,1,4.073,4.073V37.082a4.073,4.073,0,0,1-4.073,4.073H8.573A4.073,4.073,0,0,1,4.5,37.082V8.573A4.073,4.073,0,0,1,8.573,4.5Z" transform="translate(0 0)" fill="none" stroke="#8a8a8a" stroke-linecap="round" stroke-linejoin="round" stroke-width="3"/>
    <path id="Path_9468" data-name="Path 9468" d="M16.609,13.555A3.055,3.055,0,1,1,13.555,10.5,3.055,3.055,0,0,1,16.609,13.555Z" transform="translate(2.145 2.145)" fill="none" stroke="#8a8a8a" stroke-linecap="round" stroke-linejoin="round" stroke-width="3"/>
    <path id="Path_9469" data-name="Path 9469" d="M40.082,25.182,29.9,15,7.5,37.4" transform="translate(1.073 3.754)" fill="none" stroke="#8a8a8a" stroke-linecap="round" stroke-linejoin="round" stroke-width="3"/>
  </g>
</svg>
