<svg xmlns="http://www.w3.org/2000/svg" width="30.162" height="28.881" viewBox="0 0 30.162 28.881">
  <g id="Icon_feather-shopping-cart" data-name="Icon feather-shopping-cart" transform="translate(1 1)">
    <path id="Path_7335" data-name="Path 7335" d="M14.56,31.28A1.28,1.28,0,1,1,13.28,30,1.28,1.28,0,0,1,14.56,31.28Z" transform="translate(-3.039 -5.679)" fill="none" stroke="#929292" stroke-linecap="round" stroke-linejoin="round" stroke-width="2"/>
    <path id="Path_7336" data-name="Path 7336" d="M31.06,31.28A1.28,1.28,0,1,1,29.78,30,1.28,1.28,0,0,1,31.06,31.28Z" transform="translate(-5.459 -5.679)" fill="none" stroke="#929292" stroke-linecap="round" stroke-linejoin="round" stroke-width="2"/>
    <path id="Path_7337" data-name="Path 7337" d="M1.5,1.5H6.62l3.431,17.14a2.56,2.56,0,0,0,2.56,2.061H25.053a2.56,2.56,0,0,0,2.56-2.061L29.662,7.9H7.9" transform="translate(-1.5 -1.5)" fill="none" stroke="#929292" stroke-linecap="round" stroke-linejoin="round" stroke-width="2"/>
  </g>
</svg>
