<svg xmlns="http://www.w3.org/2000/svg" xmlns:xlink="http://www.w3.org/1999/xlink" width="102.764" height="97.438" viewBox="0 0 102.764 97.438">
  <defs>
    <clipPath id="clip-path">
      <path id="Path_10082" data-name="Path 10082" d="M171.287,123.179H160.8a1.241,1.241,0,0,1-1.241-1.241h0A1.241,1.241,0,0,1,160.8,120.7h10.488a1.241,1.241,0,0,1,1.241,1.241h0A1.241,1.241,0,0,1,171.287,123.179Z" transform="translate(-159.559 -120.698)"/>
    </clipPath>
  </defs>
  <g id="Group_2313" data-name="Group 2313" transform="translate(-758 -894)">
    <g id="Group_2312" data-name="Group 2312" transform="translate(758 894)">
      <path id="Path_10029" data-name="Path 10029" d="M100.216,209.784c20.165,4.033,37.835-.541,47.564-8.648,4.008-3.34,8.062-8.468,9.549-14.413,5.4-21.621-10.524-39.521-22.881-32.791-20.179,10.99-23.183,3.181-39.637-13.513-12.432-12.612-51.889,5.045-31.349,42.159A54.388,54.388,0,0,0,100.216,209.784Z" transform="translate(-55.65 -120.904)" fill="#f59322" opacity="0.2"/>
      <ellipse id="Ellipse_94" data-name="Ellipse 94" cx="49.383" cy="1.948" rx="49.383" ry="1.948" transform="translate(1.186 93.542)" fill="#d9daeb"/>
      <g id="Group_2208" data-name="Group 2208" transform="translate(0 70.113)">
        <g id="Group_2195" data-name="Group 2195" transform="translate(0 9.04)">
          <g id="Group_2188" data-name="Group 2188">
            <g id="Group_2187" data-name="Group 2187">
              <g id="Group_2186" data-name="Group 2186">
                <g id="Group_2185" data-name="Group 2185">
                  <g id="Group_2184" data-name="Group 2184">
                    <path id="Path_10030" data-name="Path 10030" d="M71.825,308.139a25.622,25.622,0,0,0-10.1-4.377c-4.689-1.058-9.086-6.875-9.086-6.875s7.665-2.092,12.425,1.457S71.825,308.139,71.825,308.139Z" transform="translate(-52.641 -296.275)" fill="#1c9547"/>
                  </g>
                </g>
              </g>
            </g>
          </g>
          <g id="Group_2194" data-name="Group 2194" transform="translate(6.571 2.991)">
            <g id="Group_2193" data-name="Group 2193">
              <g id="Group_2192" data-name="Group 2192">
                <g id="Group_2191" data-name="Group 2191">
                  <g id="Group_2190" data-name="Group 2190">
                    <g id="Group_2189" data-name="Group 2189">
                      <path id="Path_10031" data-name="Path 10031" d="M81.81,312.748a.119.119,0,0,1-.135-.049,20.169,20.169,0,0,0-7.925-7.006,19.892,19.892,0,0,0-4.513-1.673.118.118,0,0,1,.046-.232,20.132,20.132,0,0,1,4.573,1.695,20.4,20.4,0,0,1,8.018,7.089.118.118,0,0,1-.036.163A.116.116,0,0,1,81.81,312.748Z" transform="translate(-69.141 -303.785)" fill="#7c83a6"/>
                    </g>
                  </g>
                </g>
              </g>
            </g>
          </g>
        </g>
        <g id="Group_2207" data-name="Group 2207" transform="translate(8.82)">
          <g id="Group_2200" data-name="Group 2200">
            <g id="Group_2199" data-name="Group 2199">
              <g id="Group_2198" data-name="Group 2198">
                <g id="Group_2197" data-name="Group 2197">
                  <g id="Group_2196" data-name="Group 2196">
                    <path id="Path_10032" data-name="Path 10032" d="M84.557,293.556a25.627,25.627,0,0,0-6-9.228c-3.324-3.473-3.774-10.751-3.774-10.751s7.544,2.492,9.55,8.081S84.557,293.556,84.557,293.556Z" transform="translate(-74.786 -273.577)" fill="#1c9547"/>
                  </g>
                </g>
              </g>
            </g>
          </g>
          <g id="Group_2206" data-name="Group 2206" transform="translate(4.078 5.659)">
            <g id="Group_2205" data-name="Group 2205">
              <g id="Group_2204" data-name="Group 2204">
                <g id="Group_2203" data-name="Group 2203">
                  <g id="Group_2202" data-name="Group 2202">
                    <g id="Group_2201" data-name="Group 2201">
                      <path id="Path_10033" data-name="Path 10033" d="M90.715,302.212a.118.118,0,0,1-.086-.116A20.159,20.159,0,0,0,87.9,291.878a19.87,19.87,0,0,0-2.836-3.889.118.118,0,0,1,.166-.168,20.122,20.122,0,0,1,2.875,3.94A20.394,20.394,0,0,1,90.866,302.1a.118.118,0,0,1-.12.116A.127.127,0,0,1,90.715,302.212Z" transform="translate(-85.025 -287.787)" fill="#7c83a6"/>
                    </g>
                  </g>
                </g>
              </g>
            </g>
          </g>
        </g>
      </g>
      <g id="Group_2220" data-name="Group 2220" transform="translate(78.372 43.679)">
        <g id="Group_2213" data-name="Group 2213" transform="translate(0.138)" opacity="0.3">
          <g id="Group_2212" data-name="Group 2212">
            <g id="Group_2211" data-name="Group 2211">
              <g id="Group_2210" data-name="Group 2210">
                <g id="Group_2209" data-name="Group 2209">
                  <path id="Path_10034" data-name="Path 10034" d="M249.771,219.068a25.622,25.622,0,0,1,10.1-4.377c4.689-1.058,9.086-6.875,9.086-6.875s-7.665-2.091-12.425,1.458S249.771,219.068,249.771,219.068Z" transform="translate(-249.771 -207.204)" fill="#de4122"/>
                </g>
              </g>
            </g>
          </g>
        </g>
        <g id="Group_2219" data-name="Group 2219" transform="translate(0 2.991)">
          <g id="Group_2218" data-name="Group 2218">
            <g id="Group_2217" data-name="Group 2217">
              <g id="Group_2216" data-name="Group 2216">
                <g id="Group_2215" data-name="Group 2215">
                  <g id="Group_2214" data-name="Group 2214">
                    <path id="Path_10035" data-name="Path 10035" d="M249.506,223.676a.117.117,0,0,0,.135-.049,20.168,20.168,0,0,1,7.925-7.005,19.878,19.878,0,0,1,4.513-1.674.118.118,0,1,0-.046-.232,20.118,20.118,0,0,0-4.572,1.694,20.394,20.394,0,0,0-8.018,7.089.119.119,0,0,0,.036.163A.089.089,0,0,0,249.506,223.676Z" transform="translate(-249.425 -214.713)" fill="#de4122"/>
                  </g>
                </g>
              </g>
            </g>
          </g>
        </g>
      </g>
      <g id="Group_2232" data-name="Group 2232" transform="translate(78.371 34.639)">
        <g id="Group_2225" data-name="Group 2225" opacity="0.3">
          <g id="Group_2224" data-name="Group 2224">
            <g id="Group_2223" data-name="Group 2223">
              <g id="Group_2222" data-name="Group 2222">
                <g id="Group_2221" data-name="Group 2221">
                  <path id="Path_10036" data-name="Path 10036" d="M250.155,204.484a25.623,25.623,0,0,1,6-9.228c3.324-3.473,3.774-10.752,3.774-10.752s-7.544,2.493-9.55,8.082S250.155,204.484,250.155,204.484Z" transform="translate(-249.424 -184.504)" fill="#de4122"/>
                </g>
              </g>
            </g>
          </g>
        </g>
        <g id="Group_2231" data-name="Group 2231" transform="translate(0.582 5.66)">
          <g id="Group_2230" data-name="Group 2230">
            <g id="Group_2229" data-name="Group 2229">
              <g id="Group_2228" data-name="Group 2228">
                <g id="Group_2227" data-name="Group 2227">
                  <g id="Group_2226" data-name="Group 2226">
                    <path id="Path_10037" data-name="Path 10037" d="M251.037,213.141a.118.118,0,0,0,.086-.116,20.156,20.156,0,0,1,2.734-10.218,19.883,19.883,0,0,1,2.836-3.889.118.118,0,1,0-.166-.167,20.137,20.137,0,0,0-2.875,3.939,20.4,20.4,0,0,0-2.765,10.339.119.119,0,0,0,.12.116Z" transform="translate(-250.885 -198.716)" fill="#de4122"/>
                  </g>
                </g>
              </g>
            </g>
          </g>
        </g>
      </g>
      <rect id="Rectangle_611" data-name="Rectangle 611" width="60.65" height="45.13" transform="translate(18.78 44.536)" fill="#f59322"/>
      <path id="Path_10038" data-name="Path 10038" d="M121.708,277.461l-14.263.388V276.8h14.263Z" transform="translate(-85.619 -205.403)" fill="#de4122"/>
      <path id="Path_10039" data-name="Path 10039" d="M222.882,277.461l-14.263.388V276.8h14.263Z" transform="translate(-146.499 -205.403)" fill="#de4122"/>
      <g id="Group_2253" data-name="Group 2253" transform="translate(15.285 29.223)">
        <g id="Group_2234" data-name="Group 2234">
          <g id="Group_2233" data-name="Group 2233">
            <path id="Path_10040" data-name="Path 10040" d="M158.658,186.219v7.021H91.021v-7.021h0c8.152-1.481,10.754-15.314,10.754-15.314H147.9S150.5,184.739,158.658,186.219Z" transform="translate(-91.021 -170.905)" fill="#fff"/>
          </g>
        </g>
        <g id="Group_2236" data-name="Group 2236" transform="translate(0.001 15.314)">
          <g id="Group_2235" data-name="Group 2235">
            <rect id="Rectangle_612" data-name="Rectangle 612" width="67.636" height="7.021" fill="#d9daeb"/>
          </g>
        </g>
        <g id="Group_2238" data-name="Group 2238" transform="translate(0.001 0)">
          <g id="Group_2237" data-name="Group 2237">
            <path id="Path_10041" data-name="Path 10041" d="M109.3,170.9s-1.531,13.834-9.685,15.314v7.021H91.023v-7.021c8.153-1.48,10.754-15.314,10.754-15.314Z" transform="translate(-91.023 -170.905)" fill="#de4122"/>
          </g>
        </g>
        <g id="Group_2240" data-name="Group 2240" transform="translate(48.929 0)">
          <g id="Group_2239" data-name="Group 2239">
            <path id="Path_10042" data-name="Path 10042" d="M232.587,186.219v7.021H224v-7.021c-8.153-1.48-10.121-15.314-10.121-15.314h7.955S224.432,184.739,232.587,186.219Z" transform="translate(-213.877 -170.905)" fill="#de4122"/>
          </g>
        </g>
        <g id="Group_2242" data-name="Group 2242" transform="translate(19.536 0)">
          <g id="Group_2241" data-name="Group 2241">
            <path id="Path_10043" data-name="Path 10043" d="M148.324,186.267v6.973h-8.048l-.2-7.021c5.12-3.927,5.522-15.314,5.522-15.314h5.3A43.154,43.154,0,0,1,148.324,186.267Z" transform="translate(-140.073 -170.905)" fill="#de4122"/>
          </g>
        </g>
        <g id="Group_2244" data-name="Group 2244" transform="translate(36.297 0)">
          <g id="Group_2243" data-name="Group 2243">
            <path id="Path_10044" data-name="Path 10044" d="M193,186.219l-.2,7.021H184.75v-6.973a43.144,43.144,0,0,1-2.576-15.362h5.3S187.882,182.291,193,186.219Z" transform="translate(-182.159 -170.905)" fill="#de4122"/>
          </g>
        </g>
        <g id="Group_2246" data-name="Group 2246" transform="translate(0.001 15.314)">
          <g id="Group_2245" data-name="Group 2245">
            <rect id="Rectangle_613" data-name="Rectangle 613" width="8.589" height="7.021" fill="#de4122"/>
          </g>
        </g>
        <g id="Group_2248" data-name="Group 2248" transform="translate(59.05 15.314)">
          <g id="Group_2247" data-name="Group 2247" transform="translate(0)">
            <path id="Path_10045" data-name="Path 10045" d="M247.878,209.356v7.021h-8.589v-7.021h8.587Z" transform="translate(-239.289 -209.356)" fill="#de4122"/>
          </g>
        </g>
        <g id="Group_2250" data-name="Group 2250" transform="translate(19.535 15.314)">
          <g id="Group_2249" data-name="Group 2249">
            <path id="Path_10046" data-name="Path 10046" d="M148.342,209.356l-.019.048v6.973h-8.048l-.2-7.021Z" transform="translate(-140.071 -209.356)" fill="#de4122"/>
          </g>
        </g>
        <g id="Group_2252" data-name="Group 2252" transform="translate(38.869 15.314)">
          <g id="Group_2251" data-name="Group 2251">
            <path id="Path_10047" data-name="Path 10047" d="M196.887,209.356l-.2,7.021h-8.048V209.4l-.019-.048Z" transform="translate(-188.617 -209.356)" fill="#de4122"/>
          </g>
        </g>
      </g>
      <g id="Group_2260" data-name="Group 2260" transform="translate(39.84 56.144)">
        <g id="Group_2254" data-name="Group 2254">
          <rect id="Rectangle_614" data-name="Rectangle 614" width="18.53" height="33.523" fill="#754822"/>
        </g>
        <circle id="Ellipse_95" data-name="Ellipse 95" cx="1.278" cy="1.278" r="1.278" transform="translate(14.557 17.558)" fill="#e9a65f"/>
        <g id="Group_2256" data-name="Group 2256" transform="translate(1.647 1.626)">
          <g id="Group_2255" data-name="Group 2255">
            <rect id="Rectangle_615" data-name="Rectangle 615" width="15.236" height="14.152" fill="#d9daeb"/>
          </g>
        </g>
        <g id="Group_2257" data-name="Group 2257" transform="translate(1.647 1.626)">
          <path id="Path_10048" data-name="Path 10048" d="M165.741,242.583l-8.93,8.93v-5.785l3.144-3.145Z" transform="translate(-156.811 -242.583)" fill="#ebebfb"/>
        </g>
        <g id="Group_2258" data-name="Group 2258" transform="translate(12.229 11.124)">
          <path id="Path_10049" data-name="Path 10049" d="M188.036,266.433v4.654h-4.654Z" transform="translate(-183.382 -266.433)" fill="#ebebfb"/>
        </g>
        <g id="Group_2259" data-name="Group 2259" transform="translate(2.71 1.626)">
          <path id="Path_10050" data-name="Path 10050" d="M173.652,242.583v2.734l-11.423,11.418h-2.75l14.152-14.152Z" transform="translate(-159.479 -242.583)" fill="#ebebfb"/>
        </g>
      </g>
      <path id="Path_10051" data-name="Path 10051" d="M99.8,229.9l60.65-1.667v-1.251H99.8Z" transform="translate(-81.016 -175.428)" fill="#de4122"/>
      <g id="Group_2269" data-name="Group 2269" transform="translate(21.826 57.133)">
        <g id="Group_2264" data-name="Group 2264">
          <path id="Path_10052" data-name="Path 10052" d="M107.445,255.249v-7.132a7.132,7.132,0,0,1,14.263,0v7.132Z" transform="translate(-107.445 -240.986)" fill="#de4122"/>
          <path id="Path_10053" data-name="Path 10053" d="M122.3,250.056V255.9H110.347v-5.848a5.847,5.847,0,0,1,5.847-5.848h.258a5.579,5.579,0,0,1,.671.039,5.8,5.8,0,0,1,2.9,1.179,5.842,5.842,0,0,1,2.274,4.629Z" transform="translate(-109.191 -242.925)" fill="#d9daeb"/>
          <g id="Group_2261" data-name="Group 2261" transform="translate(1.156 1.283)">
            <path id="Path_10054" data-name="Path 10054" d="M117.122,244.247l-6.775,6.775v-.967a5.847,5.847,0,0,1,5.847-5.848h.258A5.647,5.647,0,0,1,117.122,244.247Z" transform="translate(-110.347 -244.208)" fill="#ebebfb"/>
          </g>
          <g id="Group_2262" data-name="Group 2262" transform="translate(9.101 8.97)">
            <path id="Path_10055" data-name="Path 10055" d="M134.3,263.51v4.009H130.3Z" transform="translate(-130.296 -263.51)" fill="#ebebfb"/>
          </g>
          <g id="Group_2263" data-name="Group 2263" transform="translate(1.156 2.502)">
            <path id="Path_10056" data-name="Path 10056" d="M121.295,248.621l-9.13,9.126h-1.818v-.8l9.677-9.676A5.838,5.838,0,0,1,121.295,248.621Z" transform="translate(-110.347 -247.269)" fill="#ebebfb"/>
          </g>
        </g>
        <g id="Group_2268" data-name="Group 2268" transform="translate(40.294)">
          <path id="Path_10057" data-name="Path 10057" d="M208.618,255.249v-7.132a7.132,7.132,0,0,1,14.263,0v7.132Z" transform="translate(-208.618 -240.986)" fill="#de4122"/>
          <path id="Path_10058" data-name="Path 10058" d="M223.473,250.056V255.9H211.521v-5.848a5.847,5.847,0,0,1,5.847-5.848h.258a5.579,5.579,0,0,1,.671.039,5.845,5.845,0,0,1,5.177,5.809Z" transform="translate(-210.365 -242.925)" fill="#d9daeb"/>
          <g id="Group_2265" data-name="Group 2265" transform="translate(1.156 1.283)">
            <path id="Path_10059" data-name="Path 10059" d="M218.3,244.247l-6.775,6.775v-.967a5.847,5.847,0,0,1,5.846-5.848h.258A5.657,5.657,0,0,1,218.3,244.247Z" transform="translate(-211.521 -244.208)" fill="#ebebfb"/>
          </g>
          <g id="Group_2266" data-name="Group 2266" transform="translate(9.101 8.97)">
            <path id="Path_10060" data-name="Path 10060" d="M235.476,263.51v4.009h-4.007Z" transform="translate(-231.469 -263.51)" fill="#ebebfb"/>
          </g>
          <g id="Group_2267" data-name="Group 2267" transform="translate(1.156 2.502)">
            <path id="Path_10061" data-name="Path 10061" d="M222.468,248.621l-9.13,9.126H211.52v-.8l9.677-9.676A5.823,5.823,0,0,1,222.468,248.621Z" transform="translate(-211.52 -247.269)" fill="#ebebfb"/>
          </g>
        </g>
      </g>
      <path id="Path_10062" data-name="Path 10062" d="M157.736,325.368H94.094a1.287,1.287,0,0,1-1.287-1.288v-.138a1.287,1.287,0,0,1,1.287-1.287h63.642a1.287,1.287,0,0,1,1.288,1.287v.138A1.287,1.287,0,0,1,157.736,325.368Z" transform="translate(-76.81 -232.996)" fill="#de4122"/>
      <path id="Path_10063" data-name="Path 10063" d="M155.391,332.529H83.549a1.453,1.453,0,0,1-1.453-1.453v-.155a1.453,1.453,0,0,1,1.453-1.453h71.843a1.453,1.453,0,0,1,1.453,1.453v.155A1.454,1.454,0,0,1,155.391,332.529Z" transform="translate(-70.365 -237.095)" fill="#f59322"/>
      <g id="Group_2294" data-name="Group 2294" transform="translate(9.615 24.418)">
        <g id="Group_2281" data-name="Group 2281" transform="translate(84.886 54.736)">
          <g id="Group_2271" data-name="Group 2271" transform="translate(4.076)">
            <g id="Group_2270" data-name="Group 2270">
              <path id="Path_10064" data-name="Path 10064" d="M300.159,298.264a1.989,1.989,0,1,1,1.989,1.988A1.991,1.991,0,0,1,300.159,298.264Zm.554,0a1.435,1.435,0,1,0,1.435-1.435A1.436,1.436,0,0,0,300.713,298.264Z" transform="translate(-300.159 -296.276)" fill="#de4122"/>
            </g>
          </g>
          <g id="Group_2280" data-name="Group 2280" transform="translate(0 5.785)">
            <g id="Group_2273" data-name="Group 2273" transform="translate(2.059)">
              <g id="Group_2272" data-name="Group 2272">
                <path id="Path_10065" data-name="Path 10065" d="M295.351,312.864a.256.256,0,0,0,.256-.256v-1.551a.256.256,0,0,0-.512,0v1.551A.256.256,0,0,0,295.351,312.864Z" transform="translate(-295.095 -310.801)" fill="#5b6bc8"/>
              </g>
            </g>
            <g id="Group_2275" data-name="Group 2275" transform="translate(2.567 2.058)">
              <g id="Group_2274" data-name="Group 2274">
                <path id="Path_10066" data-name="Path 10066" d="M296.626,316.481h1.55a.256.256,0,1,0,0-.512h-1.55a.256.256,0,0,0,0,.512Z" transform="translate(-296.37 -315.969)" fill="#5b6bc8"/>
              </g>
            </g>
            <g id="Group_2277" data-name="Group 2277" transform="translate(0 2.058)">
              <g id="Group_2276" data-name="Group 2276">
                <path id="Path_10067" data-name="Path 10067" d="M290.181,316.481h1.551a.256.256,0,0,0,0-.512h-1.551a.256.256,0,0,0,0,.512Z" transform="translate(-289.925 -315.969)" fill="#5b6bc8"/>
              </g>
            </g>
            <g id="Group_2279" data-name="Group 2279" transform="translate(2.059 2.459)">
              <g id="Group_2278" data-name="Group 2278">
                <path id="Path_10068" data-name="Path 10068" d="M295.351,319.039a.256.256,0,0,0,.256-.256v-1.551a.256.256,0,1,0-.512,0v1.551A.256.256,0,0,0,295.351,319.039Z" transform="translate(-295.095 -316.976)" fill="#5b6bc8"/>
              </g>
            </g>
          </g>
        </g>
        <g id="Group_2293" data-name="Group 2293">
          <g id="Group_2283" data-name="Group 2283" transform="translate(6.41)">
            <g id="Group_2282" data-name="Group 2282">
              <path id="Path_10069" data-name="Path 10069" d="M92.879,160.829a1.989,1.989,0,1,1,1.989,1.989A1.991,1.991,0,0,1,92.879,160.829Zm.554,0a1.435,1.435,0,1,0,1.435-1.435A1.436,1.436,0,0,0,93.433,160.829Z" transform="translate(-92.879 -158.84)" fill="#f59322"/>
            </g>
          </g>
          <g id="Group_2292" data-name="Group 2292" transform="translate(0 3.714)">
            <g id="Group_2285" data-name="Group 2285" transform="translate(2.059)">
              <g id="Group_2284" data-name="Group 2284">
                <path id="Path_10070" data-name="Path 10070" d="M82.209,170.228a.256.256,0,0,0,.256-.256v-1.551a.256.256,0,0,0-.512,0v1.551A.256.256,0,0,0,82.209,170.228Z" transform="translate(-81.953 -168.165)" fill="#de4122"/>
              </g>
            </g>
            <g id="Group_2287" data-name="Group 2287" transform="translate(2.566 2.059)">
              <g id="Group_2286" data-name="Group 2286">
                <path id="Path_10071" data-name="Path 10071" d="M83.484,173.846h1.55a.256.256,0,1,0,0-.512h-1.55a.256.256,0,1,0,0,.512Z" transform="translate(-83.228 -173.334)" fill="#de4122"/>
              </g>
            </g>
            <g id="Group_2289" data-name="Group 2289" transform="translate(0 2.059)">
              <g id="Group_2288" data-name="Group 2288">
                <path id="Path_10072" data-name="Path 10072" d="M77.04,173.846h1.551a.256.256,0,0,0,0-.512H77.04a.256.256,0,0,0,0,.512Z" transform="translate(-76.784 -173.334)" fill="#de4122"/>
              </g>
            </g>
            <g id="Group_2291" data-name="Group 2291" transform="translate(2.059 2.46)">
              <g id="Group_2290" data-name="Group 2290">
                <path id="Path_10073" data-name="Path 10073" d="M82.209,176.4a.256.256,0,0,0,.256-.256V174.6a.256.256,0,0,0-.512,0v1.55A.256.256,0,0,0,82.209,176.4Z" transform="translate(-81.953 -174.342)" fill="#de4122"/>
              </g>
            </g>
          </g>
        </g>
      </g>
      <g id="Group_2300" data-name="Group 2300" transform="translate(71.767 52.248)">
        <g id="Group_2296" data-name="Group 2296" transform="translate(0 0)">
          <g id="Group_2295" data-name="Group 2295">
            <path id="Path_10074" data-name="Path 10074" d="M248.044,228.811c.053-.051.082-.085.082-.085h-1.237v0a13.194,13.194,0,0,0-1.361.023A13.68,13.68,0,0,0,232.845,242a13.479,13.479,0,0,0,1.863,7.212c.6,1.022,1.224,2.031,1.8,3.068l8.779,15.839a3.712,3.712,0,0,0,3.246,1.912h0v-3.94l4.266-7.687c1.713-3.088,3.572-6.091,5.374-9.127a13.614,13.614,0,0,0-10.131-20.468Zm-1.581,17.644a5.748,5.748,0,1,1,5.747-5.749A5.747,5.747,0,0,1,246.463,246.455Z" transform="translate(-232.84 -228.719)" fill="#0d722e"/>
          </g>
        </g>
        <g id="Group_2299" data-name="Group 2299" transform="translate(2.187)">
          <g id="Group_2298" data-name="Group 2298">
            <g id="Group_2297" data-name="Group 2297">
              <path id="Path_10075" data-name="Path 10075" d="M246.2,240.707a5.748,5.748,0,1,1,5.748,5.749A5.746,5.746,0,0,1,246.2,240.707Zm-7.868,1.3a13.474,13.474,0,0,0,1.862,7.212c.6,1.023,1.225,2.032,1.8,3.069l9.84,17.751,6.452-11.628c1.713-3.087,3.571-6.091,5.373-9.127a13.615,13.615,0,0,0-12.646-20.529A13.681,13.681,0,0,0,238.335,242Z" transform="translate(-238.331 -228.719)" fill="#1c9547"/>
            </g>
          </g>
        </g>
      </g>
      <g id="Group_2302" data-name="Group 2302" transform="translate(0.18 36.774)">
        <circle id="Ellipse_96" data-name="Ellipse 96" cx="5.888" cy="5.888" r="5.888" fill="#de4122"/>
        <g id="Group_2301" data-name="Group 2301" transform="translate(2.714 2.35)">
          <path id="Path_10076" data-name="Path 10076" d="M65.758,197.062c-.017-.071-.033-.142-.051-.213a1.593,1.593,0,0,0-.349-.665,1.626,1.626,0,0,0-.418-.348.478.478,0,0,0-.624.122q-.431.519-.855,1.043a.494.494,0,0,0,.07.7c.155.136.317.264.476.394a.641.641,0,0,0,.063.041,4.587,4.587,0,0,1-1.951,2.382l-.348-.289c-.06-.05-.12-.1-.182-.148a.491.491,0,0,0-.6-.03.747.747,0,0,0-.159.157c-.259.313-.515.629-.774.941a.662.662,0,0,0-.153.335c0,.047.01.093.014.139a1.044,1.044,0,0,0,.138.233,1.779,1.779,0,0,0,.517.376,1.462,1.462,0,0,0,.731.147,2.769,2.769,0,0,0,.5-.1,3.993,3.993,0,0,0,1.16-.559,6.064,6.064,0,0,0,.977-.828,9.884,9.884,0,0,0,1.081-1.351,4.9,4.9,0,0,0,.618-1.21,2.736,2.736,0,0,0,.135-.673c.006-.093.008-.186.012-.279S65.768,197.168,65.758,197.062Z" transform="translate(-59.906 -195.769)" fill="#fff"/>
        </g>
        <path id="Path_10077" data-name="Path 10077" d="M75.466,210.427l1.4,3.8a.317.317,0,0,1-.409.407l-3.774-1.418Z" transform="translate(-64.881 -202.239)" fill="#de4122"/>
      </g>
      <rect id="Rectangle_616" data-name="Rectangle 616" width="1.147" height="6.001" transform="translate(32.622 23.697)" fill="#ddc741"/>
      <rect id="Rectangle_617" data-name="Rectangle 617" width="1.147" height="1.853" transform="translate(32.622 23.697)" fill="#c39337"/>
      <rect id="Rectangle_618" data-name="Rectangle 618" width="1.148" height="6.001" transform="translate(64.394 23.697)" fill="#ddc741"/>
      <rect id="Rectangle_619" data-name="Rectangle 619" width="1.148" height="1.853" transform="translate(64.394 23.697)" fill="#c39337"/>
      <path id="Path_10078" data-name="Path 10078" d="M119.049,121.757V108.542h9.836a13.049,13.049,0,0,1,25.779,0h10.028v13.215Z" transform="translate(-92.601 -97.53)" fill="#ddc741"/>
      <path id="Path_10079" data-name="Path 10079" d="M155.352,111.32a11.943,11.943,0,0,0-23.813,0h-9.712v11h43.431v-11h-9.906Z" transform="translate(-94.273 -99.202)" fill="#de4122"/>
      <g id="Group_2308" data-name="Group 2308" transform="translate(42.137 3.589)">
        <g id="Group_2303" data-name="Group 2303" transform="translate(0.425 8.1)">
          <path id="Path_10080" data-name="Path 10080" d="M170.826,128.5h-9.7a1.616,1.616,0,0,1-1.617-1.616h12.932A1.616,1.616,0,0,1,170.826,128.5Z" transform="translate(-159.511 -126.879)" fill="#ebab53"/>
        </g>
        <g id="Group_2304" data-name="Group 2304" transform="translate(0.444 5.638)">
          <path id="Path_10081" data-name="Path 10081" d="M171.287,123.179H160.8a1.241,1.241,0,0,1-1.241-1.241h0A1.241,1.241,0,0,1,160.8,120.7h10.488a1.241,1.241,0,0,1,1.241,1.241h0A1.241,1.241,0,0,1,171.287,123.179Z" transform="translate(-159.559 -120.698)" fill="#bb3d2e"/>
        </g>
        <g id="Group_2306" data-name="Group 2306" transform="translate(0.444 5.638)">
          <g id="Group_2305" data-name="Group 2305" clip-path="url(#clip-path)">
            <rect id="Rectangle_620" data-name="Rectangle 620" width="0.902" height="4.482" transform="translate(-0.082 -0.144) rotate(-32.376)" fill="#743521"/>
            <rect id="Rectangle_621" data-name="Rectangle 621" width="0.902" height="4.482" transform="translate(2.286 -0.144) rotate(-32.376)" fill="#743521"/>
            <rect id="Rectangle_622" data-name="Rectangle 622" width="0.902" height="4.482" transform="translate(4.654 -0.145) rotate(-32.376)" fill="#743521"/>
            <rect id="Rectangle_623" data-name="Rectangle 623" width="0.902" height="4.482" transform="translate(7.018 -0.148) rotate(-32.371)" fill="#743521"/>
            <rect id="Rectangle_624" data-name="Rectangle 624" width="0.902" height="4.482" transform="translate(9.383 -0.139) rotate(-32.379)" fill="#743521"/>
          </g>
        </g>
        <g id="Group_2307" data-name="Group 2307">
          <path id="Path_10083" data-name="Path 10083" d="M172.3,112.856a6.959,6.959,0,0,0-13.858,0Z" transform="translate(-158.444 -106.541)" fill="#ebab53"/>
        </g>
      </g>
      <text id="MY_KITCHEN" data-name="MY KITCHEN" transform="translate(34.066 19.883)" fill="#fcf6f8" font-size="5" font-family="Poppins-Medium, Poppins" font-weight="500"><tspan x="0" y="0">MY KITCHEN</tspan></text>
      <g id="Group_2309" data-name="Group 2309" transform="translate(49.741 4.743)">
        <ellipse id="Ellipse_97" data-name="Ellipse 97" cx="2.092" cy="1.088" rx="2.092" ry="1.088" transform="matrix(0.866, 0.5, -0.5, 0.866, 1.088, 0)" fill="#f1c856"/>
      </g>
    </g>
  </g>
</svg>
