<svg id="Vector_Smart_Object" data-name="Vector Smart Object" xmlns="http://www.w3.org/2000/svg" width="24.181" height="24.181" viewBox="0 0 24.181 24.181">
  <path id="Path_9849" data-name="Path 9849" d="M15.113,13.1a1.007,1.007,0,0,0-1.007,1.007v4.03A1.009,1.009,0,0,1,13.1,19.143H10.075V4.03A2.031,2.031,0,0,0,8.7,2.115l-.3-.1H13.1a1.009,1.009,0,0,1,1.008,1.008V6.046a1.007,1.007,0,1,0,2.015,0V3.023A3.026,3.026,0,0,0,13.1,0H2.267a.8.8,0,0,0-.108.022C2.111.018,2.064,0,2.015,0A2.017,2.017,0,0,0,0,2.015V20.151a2.031,2.031,0,0,0,1.372,1.915l6.063,2.021a2.087,2.087,0,0,0,.625.094,2.017,2.017,0,0,0,2.015-2.015V21.158H13.1a3.026,3.026,0,0,0,3.023-3.023v-4.03A1.007,1.007,0,0,0,15.113,13.1Z" transform="translate(0 0)"/>
  <path id="Path_9850" data-name="Path 9850" d="M29.2,11.409l-4.03-4.03a1.007,1.007,0,0,0-1.72.712v3.023h-4.03a1.007,1.007,0,1,0,0,2.015h4.03v3.023a1.007,1.007,0,0,0,1.72.712l4.03-4.03A1.007,1.007,0,0,0,29.2,11.409Z" transform="translate(-5.319 -2.046)"/>
</svg>
