<svg id="manage_order" data-name="manage order" xmlns="http://www.w3.org/2000/svg" width="21.54" height="20.592" viewBox="0 0 21.54 20.592">
  <path id="Path_7538" data-name="Path 7538" d="M74,303.952a.939.939,0,0,1,1.563.106c.635.747,1.324,1.447,1.985,2.17a3.3,3.3,0,0,0,2.521,1.142l6.22,0c.511,0,1.013-.067,1-.726s-.52-.693-1.03-.691c-1.985.005-3.97,0-5.938,0-.351-1.425-.173-1.688,1.179-1.658a10.4,10.4,0,0,0,5.292-.923c1.667-.87,3.27-.082,4.748.8a.785.785,0,0,1,.213.583c.018,1.457,0,2.914.018,4.371.007.457-.184.6-.6.728a29.449,29.449,0,0,1-9.919.8,5.41,5.41,0,0,1-4-2.219q-1.33-1.627-2.675-3.241a7.842,7.842,0,0,0-.579-.569Q74,304.289,74,303.952Z" transform="translate(-73.999 -290.137)" fill="#fff" fill-rule="evenodd"/>
  <path id="Path_7539" data-name="Path 7539" d="M418.321,303.624a11.258,11.258,0,0,1-1.821.27c-.175,0-.5-.469-.5-.728q-.063-3.133,0-6.267c.005-.261.3-.708.5-.736.626-.086,1.348-.32,1.823.394Z" transform="translate(-396.781 -283.582)" fill="#fff" fill-rule="evenodd"/>
  <path id="Path_7540" data-name="Path 7540" d="M94.482,165.768h6.579c0,.792.017,1.542-.005,2.291-.02.663.252,1,.934.992q2.061-.014,4.122,0c.646,0,.908-.321.9-.94a16.378,16.378,0,0,1,.022-1.849c.018-.19.286-.508.443-.511,2.04-.035,4.08-.023,6.166-.023v5.908a2.263,2.263,0,0,0-2.45,1.433c-.661-.273-1.261-.56-1.887-.771a5.027,5.027,0,0,0-4.005.27,6.658,6.658,0,0,1-3.646.731c-.307-.023-.617,0-.925,0-1.888.005-2.439.462-2.774,2.4-.438-.476-.826-.906-1.224-1.327-.443-.468-.814-1.121-1.36-1.349-.974-.407-.9-1.1-.893-1.89C94.5,169.372,94.482,167.611,94.482,165.768Z" transform="translate(-93.322 -160.564)" fill="#fff" fill-rule="evenodd"/>
  <path id="Path_7541" data-name="Path 7541" d="M325.867,77.432h-6.6V73.757h3.148c.7,0,1.4,0,2.1,0,1.108,0,1.344.229,1.354,1.308C325.872,75.821,325.867,76.577,325.867,77.432Z" transform="translate(-305.503 -73.754)" fill="#fff" fill-rule="evenodd"/>
  <path id="Path_7542" data-name="Path 7542" d="M94.689,77.362c0-.964-.006-1.884,0-2.8.006-.58.3-.857.895-.853,1.847.011,3.694,0,5.61,0v3.652Z" transform="translate(-93.526 -73.705)" fill="#fff" fill-rule="evenodd"/>
  <path id="Path_7543" data-name="Path 7543" d="M238.446,74.274h2.989v3.639h-2.989Z" transform="translate(-229.22 -74.242)" fill="#fff" fill-rule="evenodd"/>
  <path id="Path_7544" data-name="Path 7544" d="M241.6,168.3h-2.987v-1.846H241.6Z" transform="translate(-229.379 -161.251)" fill="#fff" fill-rule="evenodd"/>
</svg>
