<svg id="Vector_Smart_Object" data-name="Vector Smart Object" xmlns="http://www.w3.org/2000/svg" width="21.336" height="21.336" viewBox="0 0 21.336 21.336">
  <g id="Group_1953" data-name="Group 1953" transform="translate(0)">
    <g id="Group_1952" data-name="Group 1952">
      <g id="Group_1951" data-name="Group 1951">
        <path id="Path_9853" data-name="Path 9853" d="M19,0H12.875A1.626,1.626,0,0,0,11.25,1.624V7.75a1.626,1.626,0,0,0,1.624,1.624H19A1.626,1.626,0,0,0,20.625,7.75V1.624A1.626,1.626,0,0,0,19,0Z" transform="translate(-11.25)"/>
        <path id="Path_9854" data-name="Path 9854" d="M35.819,0H29.693a1.626,1.626,0,0,0-1.624,1.624V7.75a1.626,1.626,0,0,0,1.624,1.624h6.126A1.626,1.626,0,0,0,37.443,7.75V1.624A1.626,1.626,0,0,0,35.819,0Z" transform="translate(-16.108)"/>
        <path id="Path_9855" data-name="Path 9855" d="M19,16.819H12.875a1.626,1.626,0,0,0-1.624,1.624v6.126a1.626,1.626,0,0,0,1.624,1.624H19a1.626,1.626,0,0,0,1.624-1.624V18.443A1.626,1.626,0,0,0,19,16.819Z" transform="translate(-11.25 -4.857)"/>
        <path id="Path_9856" data-name="Path 9856" d="M35.819,16.819H29.693a1.626,1.626,0,0,0-1.624,1.624v6.126a1.626,1.626,0,0,0,1.624,1.624h6.126a1.626,1.626,0,0,0,1.624-1.624V18.443A1.626,1.626,0,0,0,35.819,16.819Z" transform="translate(-16.108 -4.857)"/>
      </g>
    </g>
  </g>
</svg>
