<?xml version="1.0" encoding="utf-8"?>
<!-- Generator: Adobe Illustrator 16.0.0, SVG Export Plug-In . SVG Version: 6.00 Build 0)  -->
<!DOCTYPE svg PUBLIC "-//W3C//DTD SVG 1.1//EN" "http://www.w3.org/Graphics/SVG/1.1/DTD/svg11.dtd">
<svg version="1.1" id="Layer_1" xmlns="http://www.w3.org/2000/svg" xmlns:xlink="http://www.w3.org/1999/xlink" x="0px" y="0px"
	 width="512px" height="512px" viewBox="0 0 512 512" enable-background="new 0 0 512 512" xml:space="preserve">
<g>
	<path fill="#FFFFFF" d="M156.983,37.289c81.657,0,163.313,0,244.97,0c-0.184,12.799-0.757,25.608-0.453,38.396
		c0.431,18.055,7.4,24.729,25.839,25.19c12.05,0.301,24.114,0.059,37.606,0.059c0,129.531,0,256.914,0,384.3
		c-102.654,0-205.309,0-307.962,0c0-38.683,0-77.361,0-117.57c14.721,0,27.478,0.477,40.184-0.094
		c34.775-1.564,55.485-24.25,54.464-59.078c-0.521-17.754-7.721-25.396-25.639-25.934c-15.714-0.476-31.462,0.202-47.178-0.229
		c-13.597-0.369-22.398-8.312-22.444-21.44C156.112,186.356,156.689,111.823,156.983,37.289z M178.247,164.039
		c82.147,0,162.686,0,243.563,0c0-7.02,0-12.665,0-19.23c-81.444,0-162.101,0-243.563,0
		C178.247,151.425,178.247,157.071,178.247,164.039z M422.177,209.281c-82.247,0-162.85,0-244.712,0
		c0.34,7.139,0.624,13.12,0.889,18.7c82.39,0,162.909,0,243.823,0C422.177,221.341,422.177,216.16,422.177,209.281z
		 M178.181,409.299c82.604,0,163.027,0,244.53,0c-0.388-7.125-0.689-12.666-1.02-18.734c-81.791,0-162.295,0-243.511,0
		C178.181,397.338,178.181,402.945,178.181,409.299z M263.027,99.478c36.49,0,70.946,0,106.498,0
		c-0.458-7.088-0.814-12.628-1.203-18.636c-35.765,0-70.219,0-105.295,0C263.027,87.568,263.027,93.138,263.027,99.478z
		 M295.07,292.057c28.318,0,55.76,0,83.688,0c0-6.998,0-12.938,0-18.889c-28.688,0-56.135,0-83.688,0
		C295.07,280.023,295.07,285.58,295.07,292.057z M295.081,355.828c28.351,0,55.819,0,84.851,0
		c-0.398-7.287-0.724-13.188-1.038-18.912c-29.135,0-56.165,0-83.813,0C295.081,343.695,295.081,349.229,295.081,355.828z
		 M178.153,101.132c7.999-0.492,14.002-0.857,20.748-1.274c-0.49-7.563-0.851-13.12-1.227-18.927c-7.129,0-13.081,0-19.521,0
		C178.153,87.708,178.153,93.282,178.153,101.132z M239.819,100.148c0-7.405,0-13.434,0-20.522
		c-7.298,0.345-13.298,0.629-19.019,0.899c0,7.654,0,13.263,0,19.623C227.33,100.148,232.959,100.148,239.819,100.148z
		 M401.235,291.941c8.059,0,14.072,0,20.101,0c0-7.146,0-13.121,0-19.267c-6.866,0-12.466,0-19.105,0
		C401.903,279.002,401.614,284.617,401.235,291.941z M422.156,336.93c-7.599,0-13.508,0-19.451,0c0,7.188,0,13.15,0,20.221
		c7.337-0.471,13.292-0.854,19.451-1.25C422.156,348.854,422.156,343.758,422.156,336.93z"/>
	<path fill="#FFFFFF" d="M61.075,385.82c-0.597,2.266-2.051,7.799-3.683,14.008c34.131,10.578,52.813-13.643,76.929-36.807
		c0,35.793,0.834,65.27-0.413,94.655c-0.494,11.65-21.195,16.224-35.27,6.65c-11.405-7.758-19.936-7.275-28.418,2.662
		c-21.988-14.914-35.983-31.609-32.521-60.439c2.968-24.704,0.297-50.053,0.853-75.1c0.13-5.89,1.472-13.367,5.214-17.298
		c26.113-27.426,52.97-54.144,79.725-80.954c1.842-1.846,4.769-2.607,11.156-5.946c0,13.387-0.142,23.987,0.029,34.582
		c0.356,22.066,20.058,41.584,42.103,41.803c16.313,0.16,32.629,0.187,48.942,0.363c1.063,0.014,2.119,0.813,3.173,1.256
		c3.277,26.211-7.968,39.977-33.805,40.936c-10.477,0.388-21.052,0.91-31.453-0.043c-27.355-2.51-51.243,1.285-69.771,25.304
		C88.221,378.77,74.834,380.117,61.075,385.82z"/>
	<path fill="#FFFFFF" d="M444.25,79.035c-6.182,0-12.949,0-20.616,0c0-7.707,0-14.761,0-22.758
		C430.934,64.335,437.331,71.396,444.25,79.035z"/>
</g>
</svg>
