<svg id="Vector_Smart_Object" data-name="Vector Smart Object" xmlns="http://www.w3.org/2000/svg" width="25.603" height="22.047" viewBox="0 0 25.603 22.047">
  <path id="Path_9839" data-name="Path 9839" d="M0,12.646v12.6a1.588,1.588,0,0,0,1.6,1.575H6.4V11.071H1.6A1.588,1.588,0,0,0,0,12.646Z" transform="translate(0 -4.772)"/>
  <path id="Path_9840" data-name="Path 9840" d="M25.9,10.088H21.17a.788.788,0,0,1-.69-.388.764.764,0,0,1-.01-.781l1.667-2.953a2.309,2.309,0,0,0,.1-2.086,2.371,2.371,0,0,0-1.62-1.352l-1.175-.289a.807.807,0,0,0-.788.237L12.276,9.45a3.9,3.9,0,0,0-1.026,2.634v8.24a3.974,3.974,0,0,0,4,3.937H23.21a4,4,0,0,0,3.858-2.9l1.708-7.714A2.885,2.885,0,0,0,28.852,13,2.936,2.936,0,0,0,25.9,10.088Z" transform="translate(-3.249 -2.214)"/>
</svg>
