<?xml version="1.0" encoding="utf-8"?>
<!-- Generator: Adobe Illustrator 16.0.0, SVG Export Plug-In . SVG Version: 6.00 Build 0)  -->
<!DOCTYPE svg PUBLIC "-//W3C//DTD SVG 1.1//EN" "http://www.w3.org/Graphics/SVG/1.1/DTD/svg11.dtd">
<svg version="1.1" id="Layer_1" xmlns="http://www.w3.org/2000/svg" xmlns:xlink="http://www.w3.org/1999/xlink" x="0px" y="0px"
	 width="71.833px" height="74px" viewBox="0 0 71.833 74" enable-background="new 0 0 71.833 74" xml:space="preserve">
<image overflow="visible" enable-background="new    " width="1367" height="768" xlink:href="../../../wify food icon/2C4ADCA1.jpg"  transform="matrix(0.9994 0 0 0.9994 -7886.1201 -7795.7861)">
</image>
<g>
	<path fill="#FFFFFF" stroke="#E53935" stroke-width="3" stroke-miterlimit="10" d="M67.604,62.119c0,4.609-3.736,8.347-8.346,8.347
		H12.117c-4.61,0-8.346-3.737-8.346-8.347V13.588c0-4.611,3.736-8.347,8.346-8.347h47.142c4.609,0,8.346,3.736,8.346,8.347V62.119z"
		/>
	<path fill="#E53935" d="M54.347,37.915c-0.023,10.467-8.368,18.846-18.74,18.821c-10.334-0.026-18.618-8.55-18.578-19.122
		c0.036-10.305,8.491-18.675,18.824-18.646C46.116,18.996,54.373,27.459,54.347,37.915z"/>
</g>
</svg>
