<svg xmlns="http://www.w3.org/2000/svg" width="32.13" height="30.389" viewBox="0 0 32.13 30.389">
  <g id="register_kitchen" data-name="register kitchen" transform="translate(0.1 0.107)">
    <path id="Path_10086" data-name="Path 10086" d="M69.593,222.269a.471.471,0,0,0,.658.675,1.593,1.593,0,0,0,.3-2.174c-.24-.469-.339-.664.166-1.139a.471.471,0,0,0-.646-.686,1.628,1.628,0,0,0-.36,2.255C69.942,221.65,70.038,221.836,69.593,222.269Zm0,0" transform="translate(-65.081 -205.172)" fill="#929292" stroke="#929292" stroke-width="0.2"/>
    <path id="Path_10087" data-name="Path 10087" d="M111.41,181.749a.471.471,0,0,0,.658.675,1.592,1.592,0,0,0,.3-2.174c-.24-.469-.34-.664.166-1.139a.471.471,0,1,0-.646-.686,1.628,1.628,0,0,0-.359,2.255C111.759,181.13,111.854,181.316,111.41,181.749Zm0,0" transform="translate(-104.289 -167.179)" fill="#929292" stroke="#929292" stroke-width="0.2"/>
    <path id="Path_10088" data-name="Path 10088" d="M218.137,172.991a.469.469,0,0,0,.336-.142,1.254,1.254,0,0,1,.991,0,.471.471,0,0,0,.669-.664,1.731,1.731,0,0,0-1.168-.382h-.01a1.713,1.713,0,0,0-1.155.385.472.472,0,0,0,.337.8Zm0,0" transform="translate(-204.091 -161.091)" fill="#929292" stroke="#929292" stroke-width="0.2"/>
    <path id="Path_10089" data-name="Path 10089" d="M279.344,172.991a.468.468,0,0,0,.336-.142,1.254,1.254,0,0,1,.991,0,.471.471,0,0,0,.669-.664,1.731,1.731,0,0,0-1.168-.382h-.01a1.713,1.713,0,0,0-1.155.385.472.472,0,0,0,.337.8Zm0,0" transform="translate(-261.481 -161.091)" fill="#929292" stroke="#929292" stroke-width="0.2"/>
    <path id="Path_10090" data-name="Path 10090" d="M262.8,51.431a.471.471,0,0,0,.471-.471V48.8a.471.471,0,0,0-.943,0V50.96A.471.471,0,0,0,262.8,51.431Zm0,0" transform="translate(-245.968 -45.312)" fill="#929292" stroke="#929292" stroke-width="0.2"/>
    <path id="Path_10091" data-name="Path 10091" d="M211.49,64.012a.471.471,0,0,0-.471.471v2.163a.471.471,0,0,0,.943,0V64.483A.471.471,0,0,0,211.49,64.012Zm0,0" transform="translate(-197.859 -60.021)" fill="#929292" stroke="#929292" stroke-width="0.2"/>
    <path id="Path_10092" data-name="Path 10092" d="M314.108,67.117a.471.471,0,0,0,.471-.471V64.483a.471.471,0,0,0-.943,0v2.163A.471.471,0,0,0,314.108,67.117Zm0,0" transform="translate(-294.077 -60.021)" fill="#929292" stroke="#929292" stroke-width="0.2"/>
    <path id="Path_10093" data-name="Path 10093" d="M30.1,16.337a1.831,1.831,0,0,0,1.829-1.83V10.4A1.831,1.831,0,0,0,30.1,8.573h-2a1.831,1.831,0,0,0-1.829,1.83v4.1a1.831,1.831,0,0,0,1.829,1.83h.529v6.6h-.39a1.579,1.579,0,0,0-.391.049l-.45-1.9c-.523-2.215-2.362-3.413-5.468-3.56h-.007a1.62,1.62,0,0,1-.653-.143l-.022-.01a1.552,1.552,0,0,1-.589-.545c.1-.077.2-.156.3-.238a5.516,5.516,0,0,0,2.113-4.156V9.393a.454.454,0,0,0,0-.137V6.162a2.274,2.274,0,0,0,.976-2.517,2.9,2.9,0,0,0-2.861-1.957H19.855A2.854,2.854,0,0,0,17.406.016a3.687,3.687,0,0,0-3.461,1.672h-1.27a2.943,2.943,0,0,0-2.9,1.986,2.248,2.248,0,0,0,.96,2.488v6.51a5.126,5.126,0,0,0,1.78,3.608c.195.184.4.36.615.525a1.563,1.563,0,0,1-.6.564h0a1.61,1.61,0,0,1-.669.151h-.007a10.911,10.911,0,0,0-1.34.142H10.5c-2.051.356-3.376,1.31-3.951,2.848H1.593a1.595,1.595,0,0,0,0,3.19H2.818a6.741,6.741,0,0,0,2.131,2.732H4.491A1.394,1.394,0,0,0,3.1,27.827v.962a1.394,1.394,0,0,0,1.392,1.393h2.76a.471.471,0,0,0,0-.943H4.491a.451.451,0,0,1-.45-.451v-.962a.451.451,0,0,1,.45-.451h9.816a.451.451,0,0,1,.441.359.425.425,0,0,0,.007.046.41.41,0,0,1,0,.046v.962a.451.451,0,0,1-.45.451H9.4a.471.471,0,0,0,0,.943h4.909A1.4,1.4,0,0,0,15.7,28.789v-.634H26.663a1.582,1.582,0,0,0,1.577,1.506H29.1a2.444,2.444,0,0,0,2.44-2.442V25.379a2.445,2.445,0,0,0-1.969-2.4V16.337Zm-3.62,4.96.527,2.232a1.573,1.573,0,0,0-.347.987v2.7h-1.34l-.771-4.462a1.48,1.48,0,0,0-.862-1.174V18.712A3.434,3.434,0,0,1,26.482,21.3Zm-3.736-2.761v2.951H21.538V18.429a2.926,2.926,0,0,0,.352.033c.3.014.585.039.856.074Zm-4.424,2.951a1.6,1.6,0,0,0-1.469-.975H13.218V19.076a6.308,6.308,0,0,0,3.346.993q.15.006.3.006a6.474,6.474,0,0,0,3.726-1.04v2.452Zm-2.275.914a2.329,2.329,0,0,0,.033-.947h.772a.652.652,0,0,1,0,1.3h-.9q.049-.177.09-.358Zm6.08-12.7v1.27a1.822,1.822,0,0,1-1.173-1.5q.588.1,1.173.228Zm-9.3-.228a1.821,1.821,0,0,1-1.153,1.487V9.7Q12.25,9.573,12.828,9.474Zm-1.153,3.2v-.707a3.568,3.568,0,0,0,1.064-.552,2.615,2.615,0,0,0,1.045-2.084c.71-.094,1.419-.155,2.123-.184a.471.471,0,1,0-.038-.942,24.688,24.688,0,0,0-2.614.248h-.012l-.049.008q-.76.115-1.518.276V5.912a.471.471,0,0,0-.222-.4,1.381,1.381,0,0,1-.774-1.58,2.02,2.02,0,0,1,2-1.3h1.543a.471.471,0,0,0,.419-.256A2.728,2.728,0,0,1,17.316.954,1.913,1.913,0,0,1,19.072,2.29a.471.471,0,0,0,.453.34h1.66A1.95,1.95,0,0,1,23.139,3.9a1.424,1.424,0,0,1-.79,1.608.471.471,0,0,0-.222.4V8.736q-.762-.16-1.527-.274a.481.481,0,0,0-.06-.011h-.019c-.794-.116-1.588-.2-2.375-.237a.471.471,0,1,0-.048.941c.63.032,1.265.092,1.9.175a2.615,2.615,0,0,0,1.124,2.145,3.6,3.6,0,0,0,1,.5v.455a4.6,4.6,0,0,1-1.782,3.439,6.278,6.278,0,0,1-3.488,1.515l-.086,0a5.518,5.518,0,0,1-2.731-1.079.5.5,0,0,0-.048-.033,7.378,7.378,0,0,1-.831-.677,4.22,4.22,0,0,1-1.486-2.923Zm5.1,5.655c.047,0,.093,0,.137,0a6.72,6.72,0,0,0,2.971-.972,2.716,2.716,0,0,0,.526.583A5.042,5.042,0,0,1,16.6,19.127a4.474,4.474,0,0,1-3.226-1.195,2.735,2.735,0,0,0,.53-.591,5.953,5.953,0,0,0,2.867.986Zm-4.884.136a2.948,2.948,0,0,0,.389-.039v2.089H11.068V18.531q.39-.048.819-.069Zm-1.762.24v1.809H7.577A3.629,3.629,0,0,1,10.126,18.7ZM1.593,22.759a.652.652,0,0,1,0-1.3h.773A2.324,2.324,0,0,0,2.4,22.4h0c.027.121.057.239.089.357Zm5.248,3.675A5.865,5.865,0,0,1,3.32,22.2a.989.989,0,0,1,.026-.7c.01-.012.033-.041.136-.041H14.964c.1,0,.127.029.137.041a.991.991,0,0,1,.026.7,6.016,6.016,0,0,1-3.475,4.236Zm8.715.78a1.394,1.394,0,0,0-1.25-.78h-.813A6.974,6.974,0,0,0,15.623,23.7h1.23a1.6,1.6,0,0,0,1.562-1.272h4.8c.314,0,.4.429.4.48l.743,4.3ZM30.6,25.379V27.22a1.5,1.5,0,0,1-1.5,1.5H28.24a.639.639,0,0,1-.637-.639V24.517a.636.636,0,0,1,.225-.486l.013-.01a.632.632,0,0,1,.4-.141H29.1a1.5,1.5,0,0,1,1.5,1.5ZM27.215,14.507V10.4a.888.888,0,0,1,.886-.887h2a.888.888,0,0,1,.886.887v4.1a.888.888,0,0,1-.886.887h-2A.888.888,0,0,1,27.215,14.507Zm0,0" transform="translate(0 0)" fill="#929292" stroke="#929292" stroke-width="0.2"/>
  </g>
</svg>
