<svg xmlns="http://www.w3.org/2000/svg" width="7.561" height="13.245" viewBox="0 0 7.561 13.245">
  <g id="Vector_Smart_Object_copy_13" data-name="Vector Smart Object copy 13" transform="translate(0 13.245) rotate(-90)">
    <g id="Group_1957" data-name="Group 1957" transform="translate(0 0)">
      <g id="Group_1956" data-name="Group 1956">
        <path id="Path_9858" data-name="Path 9858" d="M13.033.632,12.6.21a.744.744,0,0,0-1.025,0L6.625,4.993,1.671.2A.744.744,0,0,0,.646.2L.212.624a.684.684,0,0,0,0,.99l5.9,5.722a.752.752,0,0,0,.514.225h0a.752.752,0,0,0,.512-.225L13.033,1.63a.694.694,0,0,0,0-1Z"/>
      </g>
    </g>
  </g>
</svg>
