<svg id="Vector_Smart_Object" data-name="Vector Smart Object" xmlns="http://www.w3.org/2000/svg" width="24.181" height="24.18" viewBox="0 0 24.181 24.18">
  <path id="Path_9845" data-name="Path 9845" d="M23.612,9.337l-1.858-.4a10.116,10.116,0,0,0-.6-1.442l1.029-1.6a.723.723,0,0,0-.1-.9l-2.9-2.9a.723.723,0,0,0-.9-.1l-1.6,1.029a10.117,10.117,0,0,0-1.442-.6l-.4-1.858A.723.723,0,0,0,14.137,0H10.043a.722.722,0,0,0-.706.569l-.4,1.858a10.117,10.117,0,0,0-1.442.6L5.89,2a.723.723,0,0,0-.9.1l-2.9,2.9a.723.723,0,0,0-.1.9l1.029,1.6a10.117,10.117,0,0,0-.6,1.442l-1.858.4A.723.723,0,0,0,0,10.043v4.094a.723.723,0,0,0,.569.706l1.858.4a10.117,10.117,0,0,0,.6,1.442L2,18.29a.723.723,0,0,0,.1.9l2.9,2.9a.723.723,0,0,0,.9.1l1.6-1.029a10.122,10.122,0,0,0,1.442.6l.4,1.858a.722.722,0,0,0,.706.569h4.094a.723.723,0,0,0,.706-.569l.4-1.858a10.122,10.122,0,0,0,1.442-.6l1.6,1.029a.722.722,0,0,0,.9-.1l2.9-2.9a.723.723,0,0,0,.1-.9l-1.029-1.6a10.116,10.116,0,0,0,.6-1.442l1.858-.4a.723.723,0,0,0,.569-.706V10.043A.723.723,0,0,0,23.612,9.337ZM16.425,12.09A4.335,4.335,0,1,1,12.09,7.755,4.34,4.34,0,0,1,16.425,12.09Z"/>
</svg>
