<svg xmlns="http://www.w3.org/2000/svg" width="34.65" height="26.497" viewBox="0 0 34.65 26.497">
  <g id="Tracking" transform="translate(-1.641 -8.85)">
    <path id="Path_10123" data-name="Path 10123" d="M36,28.57l-7.07-7.07a1.7,1.7,0,0,0-1.208-.5H17.946v1.139h2.847v8.542h1.139V22.139h5.792a.569.569,0,0,1,.4.167l.972.972H26.488a1.139,1.139,0,0,0-1.139,1.139v5.125a1.139,1.139,0,0,0,1.139,1.139h8.542v4.556a.569.569,0,0,1-.569.569H33.277a3.981,3.981,0,0,0-7.882,0H17.331a3.981,3.981,0,0,0-7.882,0H8.264a.569.569,0,0,1-.569-.569V30.112H6.556v5.125a1.708,1.708,0,0,0,1.708,1.708H9.449a3.974,3.974,0,0,0,1.157,2.278H2v1.139H29.336a3.99,3.99,0,0,0,3.941-3.417h1.185a1.708,1.708,0,0,0,1.708-1.708V28.973a.569.569,0,0,0-.167-.4Zm-25.46,7.806a2.847,2.847,0,1,1,2.847,2.847A2.847,2.847,0,0,1,10.542,36.376Zm5.632,2.847a3.974,3.974,0,0,0,1.157-2.278h8.064a3.974,3.974,0,0,0,1.157,2.278Zm13.162,0a2.847,2.847,0,1,1,2.847-2.847,2.847,2.847,0,0,1-2.847,2.847Zm-2.847-9.681V24.417h3.751l4.792,4.792v.334Z" transform="translate(-0.029 -5.166)" fill="#929292" stroke="#929292" stroke-width="0.3"/>
    <rect id="Rectangle_627" data-name="Rectangle 627" width="1" transform="translate(12.792 31.173)" fill="#929292" stroke="#929292" stroke-width="0.3"/>
    <rect id="Rectangle_628" data-name="Rectangle 628" width="1" transform="translate(28.792 31.173)" fill="#929292" stroke="#929292" stroke-width="0.3"/>
    <rect id="Rectangle_629" data-name="Rectangle 629" width="3" height="1" transform="translate(1.791 29.173)" fill="#929292" stroke="#929292" stroke-width="0.3"/>
    <rect id="Rectangle_630" data-name="Rectangle 630" width="1" height="2" transform="translate(3.791 26.173)" fill="#929292" stroke="#929292" stroke-width="0.3"/>
    <rect id="Rectangle_631" data-name="Rectangle 631" width="1" transform="translate(3.791 25.173)" fill="#929292" stroke="#929292" stroke-width="0.3"/>
    <path id="Path_10124" data-name="Path 10124" d="M9.4,23.807A7.4,7.4,0,1,0,2,16.4a7.4,7.4,0,0,0,7.4,7.4Zm0-13.668A6.264,6.264,0,1,1,3.139,16.4,6.264,6.264,0,0,1,9.4,10.139Z" transform="translate(-0.029)" fill="#929292" stroke="#929292" stroke-width="0.3"/>
    <path id="Path_10125" data-name="Path 10125" d="M11.986,23.251a.569.569,0,0,0,.4-.167c.367-.367,3.584-3.655,3.584-6.1a3.986,3.986,0,1,0-7.973,0c0,2.443,3.217,5.731,3.584,6.1A.569.569,0,0,0,11.986,23.251Zm0-9.112a2.851,2.851,0,0,1,2.847,2.847c0,1.461-1.792,3.719-2.847,4.87-1.055-1.15-2.847-3.408-2.847-4.87A2.851,2.851,0,0,1,11.986,14.139Z" transform="translate(-2.612 -1.722)" fill="#929292" stroke="#929292" stroke-width="0.3"/>
    <path id="Path_10126" data-name="Path 10126" d="M15.417,18.708a1.708,1.708,0,1,0-1.708,1.708A1.708,1.708,0,0,0,15.417,18.708Zm-2.278,0a.569.569,0,1,1,.569.569A.569.569,0,0,1,13.139,18.708Z" transform="translate(-4.334 -3.444)" fill="#929292" stroke="#929292" stroke-width="0.3"/>
    <rect id="Rectangle_632" data-name="Rectangle 632" width="2" height="2" transform="translate(23.792 26.173)" fill="#929292" stroke="#929292" stroke-width="0.3"/>
  </g>
</svg>
