<?xml version="1.0" encoding="utf-8"?>
<!-- Generator: Adobe Illustrator 16.0.0, SVG Export Plug-In . SVG Version: 6.00 Build 0)  -->
<!DOCTYPE svg PUBLIC "-//W3C//DTD SVG 1.1//EN" "http://www.w3.org/Graphics/SVG/1.1/DTD/svg11.dtd">
<svg version="1.1" id="Layer_1" xmlns="http://www.w3.org/2000/svg" xmlns:xlink="http://www.w3.org/1999/xlink" x="0px" y="0px"
	 width="34.65px" height="26.497px" viewBox="0 0 34.65 26.497" enable-background="new 0 0 34.65 26.497" xml:space="preserve">
<g id="Tracking" transform="translate(-1.641 -8.85)">
	<g>
		<path id="Path_10123_8_" fill="#DC3623" d="M35.971,23.404l-7.07-7.07c-0.319-0.321-0.754-0.501-1.208-0.5h-9.775v1.139h2.847
			v8.542h1.14v-8.542h5.792c0.149,0,0.294,0.061,0.399,0.167l0.972,0.972h-2.607c-0.629,0-1.139,0.51-1.139,1.139v5.125
			c0,0.629,0.51,1.139,1.139,1.139h8.542v4.557c0,0.314-0.255,0.568-0.569,0.568l0,0h-1.184c-0.312-2.176-2.327-3.688-4.504-3.377
			c-1.752,0.25-3.128,1.626-3.378,3.377h-8.064c-0.311-2.176-2.327-3.688-4.504-3.377c-1.752,0.25-3.128,1.626-3.378,3.377H8.235
			c-0.314,0-0.569-0.254-0.569-0.568l0,0v-5.125H6.527v5.125c0,0.943,0.765,1.708,1.708,1.708l0,0H9.42
			c0.124,0.866,0.531,1.667,1.157,2.278H1.971v1.139h27.336c1.979-0.004,3.657-1.459,3.941-3.417h1.185
			c0.943,0,1.708-0.765,1.708-1.708l0,0v-6.264c0-0.15-0.061-0.295-0.167-0.4L35.971,23.404z M10.511,31.21
			c0-1.572,1.274-2.847,2.847-2.847c1.573,0,2.848,1.274,2.848,2.847s-1.274,2.848-2.848,2.848
			c-1.571-0.002-2.845-1.275-2.845-2.848H10.511z M16.143,34.058c0.626-0.611,1.033-1.412,1.157-2.278h8.064
			c0.124,0.866,0.53,1.667,1.156,2.278H16.143z M29.305,34.058c-1.572,0-2.847-1.275-2.847-2.848s1.274-2.847,2.847-2.847
			s2.848,1.274,2.848,2.847S30.877,34.058,29.305,34.058L29.305,34.058z M26.458,24.376v-5.125h3.751l4.792,4.792v0.334
			L26.458,24.376z"/>
		<polygon id="Rectangle_627_8_" fill="#DC3623" points="12.792,31.173 13.792,31.173 13.792,31.173 		"/>
		<polygon id="Rectangle_628_8_" fill="#DC3623" points="28.792,31.173 29.792,31.173 29.792,31.173 		"/>
		<rect id="Rectangle_629_8_" x="1.791" y="29.173" fill="#DC3623" width="3" height="1"/>
		<rect id="Rectangle_630_8_" x="3.791" y="26.173" fill="#DC3623" width="1" height="2"/>
		<polygon id="Rectangle_631_8_" fill="#DC3623" points="3.791,25.173 4.791,25.173 4.791,25.173 		"/>
		<path id="Path_10124_8_" fill="#DC3623" d="M9.371,23.808c4.087,0,7.399-3.313,7.399-7.4s-3.313-7.4-7.399-7.4
			c-4.084,0-7.396,3.309-7.4,7.393c0,4.087,3.313,7.4,7.4,7.4V23.808z M9.371,10.139c3.459-0.002,6.265,2.801,6.267,6.261
			c0.002,3.46-2.802,6.265-6.261,6.267c-3.46,0.002-6.266-2.801-6.267-6.261c0-0.002,0-0.004,0-0.006
			C3.111,12.943,5.914,10.141,9.371,10.139z"/>
		<path id="Path_10125_8_" fill="#DC3623" d="M9.374,21.529c0.15-0.001,0.294-0.061,0.399-0.167c0.367-0.367,3.584-3.655,3.584-6.1
			c0-2.202-1.784-3.986-3.986-3.986c-2.201,0-3.986,1.785-3.986,3.986c0,2.443,3.217,5.731,3.584,6.1
			C9.076,21.47,9.222,21.53,9.374,21.529z M9.374,12.417c1.571,0.002,2.845,1.276,2.847,2.847c0,1.461-1.792,3.719-2.847,4.87
			c-1.055-1.15-2.847-3.408-2.847-4.87C6.529,13.693,7.803,12.419,9.374,12.417z"/>
		<path id="Path_10126_8_" fill="#DC3623" d="M11.083,15.264c0-0.943-0.765-1.708-1.708-1.708s-1.708,0.765-1.708,1.708
			s0.765,1.708,1.708,1.708S11.083,16.207,11.083,15.264L11.083,15.264z M8.805,15.264c0-0.314,0.255-0.569,0.569-0.569
			s0.568,0.254,0.568,0.569s-0.254,0.569-0.568,0.569S8.805,15.579,8.805,15.264L8.805,15.264z"/>
		<rect id="Rectangle_632_8_" x="23.792" y="26.173" fill="#DC3623" width="2" height="2"/>
	</g>
</g>
</svg>
