<svg xmlns="http://www.w3.org/2000/svg" width="20.494" height="20.852" viewBox="0 0 20.494 20.852">
  <g id="Vector_Smart_Object" data-name="Vector Smart Object" transform="translate(0.072 0.43)">
    <g id="Vector_Smart_Object-2" data-name="Vector Smart Object" transform="translate(0 0)">
      <g id="Group_914" data-name="Group 914" transform="translate(0)">
        <g id="Group_912" data-name="Group 912" transform="translate(10.812)">
          <path id="Path_7510" data-name="Path 7510" d="M26.014,0H17.6a.6.6,0,0,0-.6.6V10.969a.6.6,0,0,0,.6.6h5.758l2.227,2.218a.6.6,0,0,0,1.025-.423V.6A.6.6,0,0,0,26.014,0Zm-1.6,5.185h-.44a4.565,4.565,0,0,1-1.163,2.489,3.394,3.394,0,0,0,1.4.3.6.6,0,1,1,0,1.2,4.591,4.591,0,0,1-2.4-.675,4.59,4.59,0,0,1-2.4.675.6.6,0,1,1,0-1.2,3.394,3.394,0,0,0,1.4-.3,4.565,4.565,0,0,1-1.163-2.489h-.44a.6.6,0,1,1,0-1.2h2v-1a.6.6,0,0,1,1.2,0v1h2a.6.6,0,1,1,0,1.2Z" transform="translate(-17.004)" fill="#fff"/>
          <path id="Path_7511" data-name="Path 7511" d="M24,9.926a3.381,3.381,0,0,0,.947-1.8H23.05A3.381,3.381,0,0,0,24,9.926Z" transform="translate(-19.191 -2.94)" fill="#fff"/>
        </g>
        <g id="Group_913" data-name="Group 913" transform="translate(0 6.462)">
          <path id="Path_7512" data-name="Path 7512" d="M6.312,19.253H7.954L7.136,17.1Z" transform="translate(-2.324 -12.647)" fill="#fff"/>
          <path id="Path_7513" data-name="Path 7513" d="M9.072,10.125H.663a.6.6,0,0,0-.6.6V23.487a.6.6,0,0,0,1.025.423l2.227-2.218H9.072a.6.6,0,0,0,.6-.6V10.723A.6.6,0,0,0,9.072,10.125ZM7.293,19.26a.6.6,0,0,1-.774-.349l-.373-.984H3.593l-.377.986a.6.6,0,0,1-1.123-.426L4.2,12.982l.005-.014a.725.725,0,0,1,.673-.45h0a.725.725,0,0,1,.673.449l.007.016,2.086,5.506a.6.6,0,0,1-.35.771Z" transform="translate(-0.063 -10.125)" fill="#fff"/>
        </g>
      </g>
    </g>
    <path id="Color_Overlay" data-name="Color Overlay" d="M.363,19.955A.585.585,0,0,1,0,19.414V6.914a.587.587,0,0,1,.588-.586H8.824a.587.587,0,0,1,.588.586V17.07a.587.587,0,0,1-.588.586H3.185L1,19.828a.588.588,0,0,1-.641.127ZM4.056,9.113l-.006.013L1.988,14.518a.588.588,0,0,0,1.1.417l.369-.965h2.5l.365.964a.588.588,0,0,0,1.1-.413L5.381,9.128l-.007-.016a.71.71,0,0,0-.659-.439h0A.709.709,0,0,0,4.056,9.113ZM19,13.5l-2.181-2.172H11.176a.588.588,0,0,1-.588-.586V.586A.587.587,0,0,1,11.176,0h8.236A.587.587,0,0,1,20,.586v12.5a.588.588,0,0,1-1,.414ZM17.647,8.984a.586.586,0,1,0,0-1.172,3.326,3.326,0,0,1-1.374-.3,4.473,4.473,0,0,0,1.14-2.438h.43a.586.586,0,1,0,0-1.172H15.882V2.929a.588.588,0,0,0-1.176,0v.977H12.745a.586.586,0,1,0,0,1.172h.43a4.473,4.473,0,0,0,1.14,2.438,3.328,3.328,0,0,1-1.374.3.586.586,0,1,0,0,1.172,4.491,4.491,0,0,0,2.353-.661A4.494,4.494,0,0,0,17.647,8.984ZM3.905,12.8l.808-2.113.8,2.113Zm10.462-7.72h1.855a3.309,3.309,0,0,1-.928,1.763A3.312,3.312,0,0,1,14.367,5.078Z" transform="translate(-0.072 -0.43)" fill="#fff"/>
  </g>
</svg>
