<svg xmlns="http://www.w3.org/2000/svg" width="22" height="20.422" viewBox="0 0 22 20.422">
  <g id="Vector_Smart_Object" data-name="Vector Smart Object" transform="translate(0.072 0)">
    <g id="Vector_Smart_Object-2" data-name="Vector Smart Object" transform="translate(0 0)">
      <g id="Group_919" data-name="Group 919" transform="translate(0 0)">
        <g id="Group_918" data-name="Group 918">
          <path id="Path_7518" data-name="Path 7518" d="M34.084,9.907,24.349,1.123a1.116,1.116,0,0,0-1.5,0L13.114,9.907a1.087,1.087,0,0,0-.288,1.212,1.105,1.105,0,0,0,1.038.7h1.555v8.8a.635.635,0,0,0,.638.632h5.336a.635.635,0,0,0,.638-.632V15.28h3.136v5.344a.635.635,0,0,0,.638.632h5.336a.635.635,0,0,0,.638-.632v-8.8h1.555a1.106,1.106,0,0,0,1.038-.7A1.088,1.088,0,0,0,34.084,9.907Z" transform="translate(-12.75 -0.833)" fill="#fff"/>
        </g>
      </g>
      <g id="Group_921" data-name="Group 921" transform="translate(14.577 1.261)">
        <g id="Group_920" data-name="Group 920">
          <path id="Path_7519" data-name="Path 7519" d="M39.877,2.81H35.592l4.923,4.433v-3.8A.635.635,0,0,0,39.877,2.81Z" transform="translate(-35.592 -2.81)" fill="#fff"/>
        </g>
      </g>
    </g>
    <path id="Color_Overlay" data-name="Color Overlay" d="M13.237,20a.634.634,0,0,1-.648-.619V14.148H9.41v5.233A.634.634,0,0,1,8.763,20H3.353a.633.633,0,0,1-.647-.619V10.762H1.13a1.122,1.122,0,0,1-1.052-.69A1.04,1.04,0,0,1,.37,8.886L10.24.283a1.16,1.16,0,0,1,1.519,0l9.871,8.6a1.04,1.04,0,0,1,.292,1.187,1.121,1.121,0,0,1-1.052.69H19.294v8.618a.633.633,0,0,1-.647.619ZM14.78,1.235h4.345a.633.633,0,0,1,.646.619V5.577Z" transform="translate(-0.072 0.177)" fill="#fff"/>
  </g>
</svg>
