<svg xmlns="http://www.w3.org/2000/svg" width="22" height="22.058" viewBox="0 0 22 22.058">
  <g id="Vector_Smart_Object" data-name="Vector Smart Object" transform="translate(0.072 0.36)">
    <g id="Vector_Smart_Object-2" data-name="Vector Smart Object" transform="translate(0 0)">
      <path id="Path_7536" data-name="Path 7536" d="M21.188,8.379,19.52,8.016a9.078,9.078,0,0,0-.537-1.294l.923-1.436a.649.649,0,0,0-.087-.809l-2.6-2.6a.649.649,0,0,0-.809-.087l-1.436.923a9.078,9.078,0,0,0-1.294-.537L13.32.511A.648.648,0,0,0,12.686,0H9.012a.648.648,0,0,0-.634.511L8.016,2.178a9.078,9.078,0,0,0-1.294.537L5.286,1.792a.649.649,0,0,0-.809.087l-2.6,2.6a.649.649,0,0,0-.087.809l.923,1.436a9.078,9.078,0,0,0-.537,1.294L.511,8.379A.648.648,0,0,0,0,9.012v3.674a.648.648,0,0,0,.511.634l1.668.363a9.078,9.078,0,0,0,.537,1.294l-.923,1.436a.649.649,0,0,0,.087.809l2.6,2.6a.649.649,0,0,0,.809.087l1.436-.923a9.083,9.083,0,0,0,1.294.537l.363,1.668a.648.648,0,0,0,.634.511h3.674a.648.648,0,0,0,.634-.511l.363-1.668a9.083,9.083,0,0,0,1.294-.537l1.436.923a.648.648,0,0,0,.809-.087l2.6-2.6a.649.649,0,0,0,.087-.809l-.923-1.436a9.078,9.078,0,0,0,.537-1.294l1.668-.363a.648.648,0,0,0,.511-.634V9.012A.648.648,0,0,0,21.188,8.379Zm-6.449,2.471a3.89,3.89,0,1,1-3.89-3.89A3.895,3.895,0,0,1,14.739,10.849Z" fill="#fff"/>
    </g>
    <path id="Color_Overlay" data-name="Color Overlay" d="M9.137,22a.657.657,0,0,1-.642-.518l-.367-1.691a9.234,9.234,0,0,1-1.312-.544l-1.456.936a.657.657,0,0,1-.82-.089L1.9,17.461a.657.657,0,0,1-.089-.82l.936-1.456a9.176,9.176,0,0,1-.544-1.312L.518,13.505A.657.657,0,0,1,0,12.863V9.138A.657.657,0,0,1,.518,8.5l1.691-.367a9.207,9.207,0,0,1,.544-1.313L1.816,5.359a.657.657,0,0,1,.089-.82L4.539,1.9a.657.657,0,0,1,.82-.088l1.456.936a9.167,9.167,0,0,1,1.312-.544L8.495.518A.657.657,0,0,1,9.137,0h3.725A.657.657,0,0,1,13.5.518l.367,1.691a9.2,9.2,0,0,1,1.313.544l1.456-.936a.657.657,0,0,1,.82.088L20.1,4.539a.658.658,0,0,1,.088.82l-.936,1.456a9.2,9.2,0,0,1,.544,1.313l1.691.367A.658.658,0,0,1,22,9.138v3.725a.658.658,0,0,1-.518.642l-1.691.367a9.173,9.173,0,0,1-.544,1.312l.936,1.456a.658.658,0,0,1-.088.82L17.461,20.1a.657.657,0,0,1-.82.089l-1.456-.936a9.269,9.269,0,0,1-1.313.544L13.5,21.482a.657.657,0,0,1-.642.518ZM7.056,11A3.944,3.944,0,1,0,11,7.056,3.948,3.948,0,0,0,7.056,11Z" transform="translate(-0.072 -0.36)" fill="#fff"/>
  </g>
</svg>
