<svg xmlns="http://www.w3.org/2000/svg" width="22.047" height="22" viewBox="0 0 22.047 22">
  <g id="Vector_Smart_Object" data-name="Vector Smart Object" transform="translate(0.349 0.012)">
    <g id="Vector_Smart_Object-2" data-name="Vector Smart Object" transform="translate(0 0)">
      <path id="Path_7532" data-name="Path 7532" d="M13.561,11.754a.9.9,0,0,0-.9.9v3.617a.905.905,0,0,1-.9.9H9.041V3.617A1.822,1.822,0,0,0,7.81,1.9l-.268-.09h4.211a.905.905,0,0,1,.9.9V5.425a.9.9,0,1,0,1.808,0V2.713A2.716,2.716,0,0,0,11.753,0H2.034a.714.714,0,0,0-.1.02C1.894.017,1.852,0,1.808,0A1.81,1.81,0,0,0,0,1.809V18.082A1.822,1.822,0,0,0,1.231,19.8l5.441,1.814a1.873,1.873,0,0,0,.561.084,1.81,1.81,0,0,0,1.808-1.808v-.9h2.712a2.716,2.716,0,0,0,2.712-2.712V12.658A.9.9,0,0,0,13.561,11.754Z" transform="translate(0 0)" fill="#fff"/>
      <path id="Path_7533" data-name="Path 7533" d="M28.1,10.965,24.48,7.349a.9.9,0,0,0-1.543.639V10.7H19.321a.9.9,0,1,0,0,1.808h3.616v2.712a.9.9,0,0,0,1.543.639L28.1,12.243A.9.9,0,0,0,28.1,10.965Z" transform="translate(-6.663 -2.563)" fill="#fff"/>
    </g>
    <path id="Color_Overlay" data-name="Color Overlay" d="M6.765,21.915,1.249,20.076A1.847,1.847,0,0,1,0,18.334V1.833A1.835,1.835,0,0,1,1.833,0c.045,0,.087.017.131.02a.733.733,0,0,1,.1-.02h9.854a2.754,2.754,0,0,1,2.75,2.75V5.5a.917.917,0,0,1-1.833,0V2.75a.918.918,0,0,0-.917-.917H7.647l.271.091A1.848,1.848,0,0,1,9.166,3.667v13.75h2.75a.918.918,0,0,0,.917-.917V12.833a.917.917,0,1,1,1.833,0V16.5a2.754,2.754,0,0,1-2.75,2.75H9.166v.917A1.835,1.835,0,0,1,7.334,22,1.9,1.9,0,0,1,6.765,21.915Zm10.3-8.234a.919.919,0,0,1-.565-.847v-2.75H12.833a.917.917,0,1,1,0-1.833H16.5V5.5a.916.916,0,0,1,1.565-.648l3.666,3.666a.915.915,0,0,1,0,1.3l-3.666,3.666a.919.919,0,0,1-1,.2Z" transform="translate(-0.349 -0.012)" fill="#fff"/>
  </g>
</svg>
