<svg xmlns="http://www.w3.org/2000/svg" width="22" height="22.716" viewBox="0 0 22 22.716">
  <g id="Vector_Smart_Object" data-name="Vector Smart Object" transform="translate(0.072 0.38)">
    <g id="Vector_Smart_Object-2" data-name="Vector Smart Object" transform="translate(0)">
      <g id="Group_926" data-name="Group 926">
        <path id="Path_7522" data-name="Path 7522" d="M22.048,20.827l-2.4,3.237a2.518,2.518,0,0,1-2.02,1.028H13.159a.655.655,0,0,1,0-1.309h3.87a1.529,1.529,0,0,0,1.512-1.557,1.5,1.5,0,0,0-1.483-1.5h-4.45a3.6,3.6,0,0,0-4.692-.352l-.479.352v7.416H18.493a3.789,3.789,0,0,0,3.208-1.8l2.481-3.973a1.372,1.372,0,0,0,.207-.726,1.3,1.3,0,0,0-2.341-.816Z" transform="translate(-2.691 -7.117)" fill="#fff"/>
        <path id="Path_7523" data-name="Path 7523" d="M2.839,19.277H.636A.645.645,0,0,0,0,19.932v8.725a.645.645,0,0,0,.636.654h2.2a.645.645,0,0,0,.636-.654V19.932A.645.645,0,0,0,2.839,19.277Z" transform="translate(0 -6.975)" fill="#fff"/>
        <path id="Path_7524" data-name="Path 7524" d="M18.879,5.667a.654.654,0,0,0-.225.391.461.461,0,0,0,.109.438c.035.028.074.056.116.084Z" transform="translate(-6.745 -2.05)" fill="#fff"/>
        <path id="Path_7525" data-name="Path 7525" d="M16.719,10.907a5.383,5.383,0,0,0,5.3-5.453A5.383,5.383,0,0,0,16.719,0a5.383,5.383,0,0,0-5.3,5.453A5.383,5.383,0,0,0,16.719,10.907Zm-1.6-3.67A.416.416,0,0,1,15.7,7.11a1.264,1.264,0,0,0,.564.249V5.516a3.106,3.106,0,0,1-.639-.385,1.328,1.328,0,0,1-.419-1.286,1.456,1.456,0,0,1,.979-1.152l.079-.023V2.4a.424.424,0,1,1,.848,0v.224a1.46,1.46,0,0,1,.843.448.445.445,0,0,1-.041.615.415.415,0,0,1-.6-.039.582.582,0,0,0-.206-.126v1.41l.224.084a1.566,1.566,0,0,1,1.031,1.766,1.757,1.757,0,0,1-1.255,1.414v.312a.424.424,0,1,1-.848,0V8.237a2.016,2.016,0,0,1-1.028-.4.444.444,0,0,1-.123-.6Z" transform="translate(-4.133)" fill="#fff"/>
        <path id="Path_7526" data-name="Path 7526" d="M20.76,9.959a.68.68,0,0,0-.419-.776v1.4A.9.9,0,0,0,20.76,9.959Z" transform="translate(-7.36 -3.323)" fill="#fff"/>
      </g>
    </g>
    <path id="Color_Overlay" data-name="Color Overlay" d="M.645,22A.645.645,0,0,1,0,21.356V12.762a.645.645,0,0,1,.645-.645H2.879a.644.644,0,0,1,.644.645v8.594A.644.644,0,0,1,2.879,22Zm9.324-1.289H4.813v-7.3L5.3,13.06a3.733,3.733,0,0,1,4.757.347h4.511a1.5,1.5,0,0,1,1.5,1.474,1.528,1.528,0,0,1-1.533,1.534H10.613a.644.644,0,1,0,0,1.289H15.14a2.578,2.578,0,0,0,2.048-1.012L19.626,13.5a1.323,1.323,0,0,1,2.164,1.519l-2.515,3.913a3.868,3.868,0,0,1-3.253,1.776ZM7.391,5.371a5.371,5.371,0,1,1,5.371,5.371A5.377,5.377,0,0,1,7.391,5.371Zm3.745,1.757a.429.429,0,0,0,.125.594,2.083,2.083,0,0,0,1.042.39v.266a.43.43,0,1,0,.86,0V8.071a1.748,1.748,0,0,0,1.273-1.392,1.538,1.538,0,0,0-1.046-1.74l-.227-.083V3.468a.61.61,0,0,1,.21.124.43.43,0,0,0,.645-.567,1.5,1.5,0,0,0-.855-.441v-.22a.43.43,0,1,0-.86,0v.267l-.08.023a1.447,1.447,0,0,0-.993,1.135,1.286,1.286,0,0,0,.425,1.266,3.15,3.15,0,0,0,.648.379V7.248A1.308,1.308,0,0,1,11.731,7a.43.43,0,0,0-.6.124Zm2.026-1.355a.664.664,0,0,1,.425.764.886.886,0,0,1-.425.616Zm-.977-1.394a.444.444,0,0,1-.111-.431.642.642,0,0,1,.228-.385v.9A1.345,1.345,0,0,1,12.185,4.378Z" transform="translate(-0.072 -0.38)" fill="#fff"/>
  </g>
</svg>
