<?xml version="1.0" encoding="utf-8"?>
<!-- Generator: Adobe Illustrator 16.0.0, SVG Export Plug-In . SVG Version: 6.00 Build 0)  -->
<!DOCTYPE svg PUBLIC "-//W3C//DTD SVG 1.1//EN" "http://www.w3.org/Graphics/SVG/1.1/DTD/svg11.dtd">
<svg version="1.1" id="Layer_1" xmlns="http://www.w3.org/2000/svg" xmlns:xlink="http://www.w3.org/1999/xlink" x="0px" y="0px"
	 width="24px" height="25px" viewBox="0 0 24 25" enable-background="new 0 0 24 25" xml:space="preserve">
<image overflow="visible" width="1366" height="768" xlink:href="2C4ADCA1.jpg"  transform="matrix(1 0 0 1 -7886 -7796)">
</image>
<g>
	<g>
		<path fill-rule="evenodd" clip-rule="evenodd" fill="#0B7D3F" d="M1.062,22.554c0-6.271,0-12.545,0-18.816
			c0.16-0.449,0.299-0.918,0.723-1.196C2.043,2.37,2.338,2.25,2.617,2.106c6.224,0,12.446,0,18.668,0
			c1.315,0.545,1.567,0.929,1.567,2.375c0,5.852-0.012,11.705,0.014,17.554c0.006,1.289-0.854,2.114-2.108,2.108
			c-5.643-0.031-11.286-0.015-16.928-0.015c-0.333,0-0.668,0.013-1-0.008c-0.776-0.052-1.313-0.446-1.612-1.163
			C1.163,22.824,1.114,22.688,1.062,22.554z M1.719,13.149c0,2.972,0,5.947,0,8.922c0,0.965,0.462,1.438,1.418,1.438
			c5.886,0.003,11.773,0.003,17.662,0c0.952,0,1.446-0.487,1.446-1.43c0-5.974,0-11.948,0-17.92c0-0.897-0.501-1.39-1.399-1.39
			c-5.914-0.002-11.825-0.002-17.738,0c-0.925,0-1.388,0.46-1.388,1.381C1.719,7.15,1.719,10.148,1.719,13.149z"/>
		<path fill-rule="evenodd" clip-rule="evenodd" fill="#0B7D3F" d="M18.251,11.72c-0.008,3.526-2.819,6.349-6.313,6.341
			c-3.481-0.009-6.272-2.881-6.259-6.443c0.013-3.471,2.861-6.291,6.342-6.281C15.479,5.346,18.26,8.197,18.251,11.72z"/>
	</g>
</g>
<g>
	<path fill="#0B7D3F" d="M9.248,22.079l-0.863-2.694h0.667l0.328,1.14c0.092,0.319,0.176,0.627,0.24,0.963h0.012
		c0.068-0.323,0.152-0.644,0.244-0.951l0.344-1.151h0.647L9.96,22.079H9.248z"/>
	<path fill="#0B7D3F" d="M12.76,20.939h-0.992v0.64h1.108v0.5h-1.72v-2.694h1.663v0.5h-1.051v0.56h0.992V20.939z"/>
	<path fill="#0B7D3F" d="M15.543,21.955c-0.188,0.064-0.544,0.152-0.899,0.152c-0.492,0-0.848-0.124-1.096-0.364
		c-0.248-0.231-0.384-0.584-0.379-0.979c0.004-0.896,0.655-1.407,1.538-1.407c0.349,0,0.616,0.068,0.748,0.132l-0.128,0.488
		c-0.148-0.064-0.332-0.116-0.628-0.116c-0.508,0-0.892,0.288-0.892,0.871c0,0.556,0.348,0.884,0.848,0.884
		c0.14,0,0.252-0.016,0.3-0.04v-0.563h-0.416v-0.476h1.004V21.955z"/>
</g>
</svg>
